<svg width="18" height="18" viewBox="0 0 18 18" fill="none" xmlns="http://www.w3.org/2000/svg"><path d="M.35 14.313l1.995-1.33L4.12 11.8a.786.786 0 0 1 1.056.171l1.097 1.412c.236.306.66.394.998.207.745-.415 1.626-.805 3.57-2.75 1.943-1.947 2.335-2.825 2.75-3.57a.782.782 0 0 0-.207-.998L11.97 5.175a.786.786 0 0 1-.17-1.056L12.945 2.4 14.313.35A.786.786 0 0 1 15.37.112l1.576.946c.426.25.74.656.875 1.131.43 1.572.518 5.039-5.038 10.595-5.556 5.556-9.023 5.469-10.595 5.038a1.925 1.925 0 0 1-1.131-.875l-.946-1.576a.786.786 0 0 1 .238-1.058z" fill="#00A7FF"/></svg>