<svg width="143" height="51" fill="none" xmlns="http://www.w3.org/2000/svg"><path d="M16.101 0c3.364 0 4.566 2.403 5.287 4.806C21.868 5.768 30.76 30.28 31 31c0 .24 0 .481-.24.721-.24 0-5.047 1.923-5.287 1.923-.24 0-.48 0-.48-.24s-1.923-5.528-2.163-6.249H9.613c-.24.481-2.163 6.008-2.163 6.249 0 .24-.48.48-.721.24-.24 0-4.806-1.923-5.287-1.923-.24 0-.48-.48-.24-.72.24-.962 9.132-24.753 9.612-26.195C11.535 2.403 12.737 0 16.101 0zM.481 43.497c-.24 0-.481.24-.481.48v5.768c0 .24.24.48.48.48h31.241c.24 0 .481-.24.481-.48v-5.768c0-.24-.24-.48-.48-.48H.48zM16.1 7.93l-4.566 13.458h8.892L16.1 7.93zM82.908 29.8c-.72.24-1.201.24-1.682.24-.961 0-1.682-.48-1.682-1.442 0-1.201.72-1.442 2.163-1.442h.96v.721c0 .962.241 1.442.241 1.923zm3.845 1.2c-.72-1.201-.961-1.922-.961-3.364v-3.124c0-1.682-.24-2.163-.721-2.884-.721-.961-1.682-1.201-3.364-1.201-1.202 0-2.644.24-3.845.48l.48 2.163c.721 0 1.682-.24 2.403-.24 1.923 0 2.163.24 2.163 1.682v.48c-.48 0-.961-.24-1.442-.24-2.883 0-4.566 1.442-4.566 3.845 0 2.163 1.682 3.365 3.605 3.365.721 0 1.442-.24 2.163-.48l.961-.482c.24.481.961.962 1.202.962 0 .48 1.922-.962 1.922-.962zm29.318-1.201c-.721.24-1.201.24-1.682.24-.961 0-1.682-.48-1.682-1.442 0-1.201.721-1.442 2.163-1.442h.961v.721c0 .962.24 1.442.24 1.923zM119.916 31c-.72-1.201-.961-1.922-.961-3.364v-3.124c0-1.682-.24-2.163-.721-2.884-.48-.961-1.682-1.201-3.364-1.201-1.202 0-2.644.24-3.845.48l.48 2.163c.721 0 1.683-.24 2.404-.24 1.922 0 2.162.24 2.162 1.682v.48c-.48 0-.961-.24-1.441-.24-2.884 0-4.566 1.442-4.566 3.845 0 2.163 1.682 3.365 3.845 3.365.721 0 1.441-.24 2.162-.48l.962-.482c.24.481.961.962 1.201.962l1.682-.962zm23.071 1.202s-1.683-3.364-1.923-4.326c-.481-.96-.961-1.442-1.682-1.682.721 0 1.201-.48 1.682-1.682.481-1.201.721-1.442.961-1.682.241-.24.721-.24.721-.24l.241-2.163h-1.442c-.721 0-1.202.24-1.683.72-.24.241-.48.722-.72 1.202-.241.48-.481.962-.721 1.682-.241.481-.481.962-1.202.962h-.481V15.86h-2.883v16.1h2.883v-4.565h.481c.961 0 .961.24 1.442 1.201.481.962 1.442 3.605 1.442 3.605h2.884zm-83.63 0h3.365l-5.287-15.86c-.48-.24-1.202-.24-1.923-.24-.72 0-.96 0-1.682.24l-5.527 15.86h3.364s.481-1.442.962-3.124h5.767c.48 1.682.961 3.124.961 3.124zm-5.767-5.767s.961-3.124 1.201-3.605c.481-1.202.962-3.364.962-3.364s.48 2.162.961 3.364c.24.48.961 3.605.961 3.605H53.59zm38.21-1.923c-.962 0-1.923.961-1.923 1.922 0 .962.962 1.923 1.923 1.923.961 0 1.922-.961 1.922-1.922 0-.962-.961-1.923-1.922-1.923zm-24.993-8.41h-2.884v16.1h2.884v-16.1zm59.117 6.968c1.682 0 1.923.48 1.923 1.682v7.21h2.884v-7.45c0-1.682-.241-2.163-.721-2.884-.721-.961-1.683-1.201-3.845-1.201-1.923 0-3.365.24-4.807.72v10.815h2.884V23.07h1.682zm-51.667-7.21c-1.923 0-2.884.481-3.365 1.202-.48.721-.72 1.202-.72 2.884v1.442H68.73v2.403h1.441v8.411h2.884v-8.41h2.884v-2.404h-2.884v-1.202c0-1.442.24-1.682 2.163-1.682h.721l.48-2.403c-.72-.24-1.441-.24-2.162-.24zm23.55 0c.962 0 3.365-.24 4.807-.24h.721c2.884 0 4.325 1.923 4.325 4.326 0 1.682-.72 2.643-2.403 3.364 2.163.481 3.124 2.163 3.124 4.086 0 1.442-.48 2.643-1.201 3.364-.961.961-2.403 1.442-4.326 1.442h-5.046V15.861zm4.807 2.644h-1.682v3.845h1.682c.721 0 1.201-.24 1.682-.48.24-.24.481-.721.481-1.442 0-1.202-.721-1.923-2.163-1.923zm0 11.055c1.682 0 2.643-.721 2.643-2.404 0-.48-.24-1.201-.721-1.441-.48-.481-1.201-.721-1.922-.721h-1.923v4.806c.721-.24 1.202-.24 1.923-.24z" fill="#EE2A23"/></svg>