<svg width="78" height="51" viewBox="0 0 78 51" fill="none" xmlns="http://www.w3.org/2000/svg"><path fill-rule="evenodd" clip-rule="evenodd" d="M67.995 12.386H78l-1 5.382h-4.044l-.96 5.088h3.628l-.917 5.089H71.08l-3.877 22.077H61.24l6.754-37.636zm-2.168 0H59.74l-3.668 19.806c-.25 1.346-.459 2.187-.626 2.607-.208.337-.458.505-.875.505-.334 0-.542-.168-.584-.463-.041-.336.042-1.093.25-2.27l3.752-20.185h-6.128l-2.96 15.937c-.542 3.028-.917 5.005-1 5.972-.042.967.083 1.85.458 2.733.334.883 1.042 1.556 2.001 2.06 1 .547 2.126.842 3.544.842 1.292 0 2.418-.21 3.418-.673 1.042-.42 1.876-1.136 2.627-1.977.708-.883 1.25-1.724 1.5-2.565.292-.84.584-2.229 1.001-4.331l3.377-17.998zM40.98 29.669c.25-3.07.626-6.77 1.21-11.27-1.585 5.13-2.669 8.831-3.21 11.27h2zm6.212-17.284l-1.876 26.956h-5.628l.584-4.878h-2.127l-1.292 4.878h-6.087l8.547-26.956h7.879zm-12.674 0H29.35l-2.21 12.154-1.209-12.154h-5.085L15.841 39.3h5.127l2.252-12.28.917 12.28h5.336l5.044-26.913zm-16.425.21l-5.044 12.196 1.25 14.55H8.671l-1.042-9.63-1.793 9.63H0L6.128.022h5.878L9.005 21.511l3.71-8.957h5.378v.042z" fill="#00AEEF"/></svg>