<svg width="209" height="38" fill="none" xmlns="http://www.w3.org/2000/svg"><path d="M0 19.25h38.193V0H0v19.25z" fill="#EE293D"/><path d="M0 37.754h38.194V18.877H0v18.877z" fill="#231F20"/><path d="M6.663 20.023h24.85v-2.3H6.662v2.3z" fill="#fff"/><path d="M62.557 9.43c4.158 0 6.762 2.681 6.762 6.393 0 3.862-2.613 6.09-6.762 6.09h-8.27v6.314h-3.521V9.43h11.791zm.207 9.376c1.823 0 2.963-1.252 2.963-2.93 0-1.856-1.14-3.339-3.17-3.339h-8.27v6.269h8.477zm19.613 9.944c-6.062 0-11.073-3.986-11.073-9.953 0-5.887 5.02-9.953 11.073-9.953 6.088 0 11.028 4.057 11.028 9.953 0 5.976-4.94 9.953-11.028 9.953zm0-16.683c-4.41 0-7.427 2.957-7.427 6.739 0 3.889 2.892 6.766 7.427 6.766 4.517 0 7.373-2.904 7.373-6.766.009-3.791-2.856-6.74-7.373-6.74zm25.63 16.666c-6.367 0-11.154-3.987-11.154-9.954 0-5.868 4.867-9.926 11.154-9.926 3.754 0 6.439 1.056 8.845 2.806l-1.885 2.76c-1.743-1.33-3.952-2.308-6.861-2.308-4.643 0-7.535 2.904-7.535 6.668 0 3.89 2.919 6.686 7.579 6.686 2.91 0 5.218-.923 6.969-2.255l1.877 2.753c-2.398 1.767-5.235 2.77-8.989 2.77zm39.45-5.07l-2.182 4.564h-3.807l9.249-18.806h3.7l9.277 18.806h-3.808l-2.182-4.564h-10.247zm1.464-3.054h7.328l-3.655-7.619-3.673 7.619zm33.434 7.618v-8.045h-12.447v8.045h-3.529V9.43h3.529v7.67h12.447V9.43h3.529v18.797h-3.529zm8.747 0V9.429h3.529v8.773l9.555-8.773h4.329l-9.825 9.057 10.238 9.75h-4.733l-9.555-9.128v9.119h-3.538zM132.766 16.32h-8.253v-3.96h13.605V9.412h-17.126V28.2h11.783c4.148 0 7.013-2.229 7.013-5.94-.009-3.854-2.874-5.94-7.022-5.94zm.206 8.772h-8.459v-5.656h8.459c2.209 0 3.466 1.155 3.466 2.833-.008 1.838-1.005 2.823-3.466 2.823z" fill="#231F20"/></svg>