<svg width="110" height="51" fill="none" xmlns="http://www.w3.org/2000/svg"><path d="M77.95 4.463v1.824h15.288c1.009 0 2.56 0 3.57 1.031 1.009 1.03 1.009 2.617 1.009 3.648v15.622c0 1.031 0 2.617-1.01 3.648-1.008 1.031-2.56 1.031-3.569 1.031h-7.372c-1.28 0-2.949 0-3.57-1.427-.62-1.428.272-2.736 1.01-3.767l9.932-13.521H77.951l-6.13 8.327c-1.01 1.387-1.902 2.617-1.902 4.163 0 1.546.815 2.696 1.901 4.163l1.513 2.062c1.514 2.062 3.066 4.164 5.083 5.195 2.057 1.03 4.462 1.03 7.76 1.03h6.635c3.841 0 9.545 0 13.387-3.885C110 29.72 110 23.97 110 21.91v-6.265c0-2.102 0-7.812-3.802-11.697C102.395.022 96.691.022 92.85.022H82.296c-1.009 0-2.289 0-3.298 1.031-1.047 1.07-1.047 2.34-1.047 3.41z" fill="#FA3E3E"/><path d="M59.598 12.512h15.287l-18.314 24.98H41.284l18.314-24.98zM0 16.953c0-1.03 0-2.34 1.009-3.37 1.009-1.031 2.29-1.031 3.298-1.031h25.608c3.298 0 5.743 0 7.76 1.03 2.018 1.032 3.57 3.133 5.083 5.195l1.514 2.062c1.086 1.467 1.9 2.617 1.9 4.163 0 1.547-.892 2.776-1.9 4.164l-6.13 8.326h-15.21l9.932-13.52c.776-1.032 1.669-2.34 1.009-3.767-.62-1.428-2.29-1.428-3.57-1.428h-11.95v31.245H6.13V18.777H0v-1.824z" fill="#FA3E3E"/></svg>