<svg width="103" height="54" fill="none" xmlns="http://www.w3.org/2000/svg"><path d="M4 53v.8l92.8.1v-1L4 53zm21.9-7c0-3.8-3.1-6.9-6.9-6.9-3.8 0-6.9 3.1-6.9 6.9 0 3.8 3.1 6.9 6.9 6.9 3.8 0 6.9-3.1 6.9-6.9zm-12.1 0c0-2.8 2.3-5.1 5.1-5.1S24 43.2 24 46s-2.3 5.1-5.1 5.1-5.1-2.3-5.1-5.1zm8-.2c0-1.6-1.3-2.9-2.9-2.9-1.6 0-2.9 1.3-2.9 2.9 0 1.6 1.3 2.9 2.9 2.9 1.6 0 2.9-1.3 2.9-2.9zM18.9 48c-1.2 0-2.2-1-2.2-2.2 0-1.2 1-2.2 2.2-2.2 1.2 0 2.2 1 2.2 2.2-.1 1.2-1 2.2-2.2 2.2zm60.9-2c0-3.8-3.1-6.9-6.9-6.9-3.8 0-6.9 3.1-6.9 6.9 0 3.8 3.1 6.9 6.9 6.9 3.8 0 6.9-3.1 6.9-6.9zm-12.1 0c0-2.8 2.3-5.1 5.1-5.1S78 43.1 78 46c0 2.8-2.3 5.1-5.1 5.1s-5.2-2.3-5.2-5.1zm8-.2c0-1.6-1.3-2.9-2.9-2.9-1.6 0-2.9 1.3-2.9 2.9 0 1.6 1.3 2.9 2.9 2.9 1.6 0 2.9-1.3 2.9-2.9zM72.8 48c-1.2 0-2.2-1-2.2-2.2 0-1.2 1-2.2 2.2-2.2 1.2 0 2.2 1 2.2 2.2 0 1.2-1 2.2-2.2 2.2zm23-2c0-3.8-3.1-6.9-6.9-6.9-3.8 0-6.9 3.1-6.9 6.9 0 3.8 3.1 6.9 6.9 6.9 3.8 0 6.9-3.1 6.9-6.9zm-12.1 0c0-2.8 2.3-5.1 5.1-5.1S94 43.1 94 46c0 2.8-2.3 5.1-5.1 5.1s-5.2-2.3-5.2-5.1zm8-.2c0-1.6-1.3-2.9-2.9-2.9-1.6 0-2.9 1.3-2.9 2.9 0 1.6 1.3 2.9 2.9 2.9 1.6 0 2.9-1.3 2.9-2.9zM88.8 48c-1.2 0-2.2-1-2.2-2.2 0-1.2 1-2.2 2.2-2.2 1.2 0 2.2 1 2.2 2.2 0 1.2-1 2.2-2.2 2.2zM28.9 0v1.8H30v35.1c0 .5.4.9.9.9h37.9c-2.2 1.1-3.9 3.1-4.5 5.5V43H30.7c-.4-1.3-1-2.6-1.8-3.8V11.3c0-.2-.2-.4-.4-.4v-1h-.8V1.3c0-.1-.1-.2-.1-.3-.1-.1-.2-.1-.3-.1 0 0-4.6.9-8.9 3-3.1 1.5-5.7 4.5-7 6.1H7.3c-.4 0-.7.2-.8.6-.3.9-2.1 5.6-3.5 10V16H1v6.7h1.4C1.5 25.1 1 27.3 1 28.3v1.6H.9c-.2 0-.5.1-.6.3-.2.2-.3.4-.3.6v6.1c0 .5.3.8.8.9h.1v6.9c0 .4.3.8.7.9l7.9 1.2h.1c.2 0 .4-.1.6-.2.2-.2.3-.4.3-.7 0-4.4 4-8.3 8.5-8.3 4.4 0 8.2 3.7 8.2 8.1 0 .2.1.5.3.6.2.2.4.3.6.3h2.7V45c.1 0 .2-.1.2-.2h33.2v-.1h.2c.2 0 .3-.1.4-.3.5-3.4 3-6 6.3-6.7h19.8c3.6.8 6.4 3.9 6.4 7.7 0 .2.2.4.4.4s.4-.2.4-.4c0-3.4-2-6.3-4.9-7.7h7.8c.5 0 .9-.4.9-.9v-35h1.1V0H28.9zm-.8 11.6v26.7c-2.1-2.5-5.2-4.1-8.4-4.4v-22c0-.1 0-.1-.1-.2l8.5-.1zm-9.4-7.1c3.4-1.6 7-2.5 8.2-2.8v8.1l-14.6.2c1.4-1.7 3.7-4.2 6.4-5.5zM1.8 31.8H3V36H1.8v-4.2zM2.6 44v-7.2h.8c.2 0 .4-.2.4-.4v-5c0-.2-.2-.4-.4-.4h-.7v-2.7c0-2.2 3.5-12.2 5.2-16.6l11.2-.1c0 .1-.1.1-.1.2V28h-2.1c-.1 0-.2.1-.3.2l-1.7 3c-.1.1-.1.3 0 .4.1.1.2.2.3.2H19V34c-5.9 0-11.6 4.9-12.2 10.7L2.6 44zM19 31h-3l1.2-2.3H19V31zm9.9 13.8c-.5-4.9-4.8-8.9-9.9-8.9-5 0-9.6 4.2-10.2 9.1l-1.3-.2c.6-5.4 6-10.1 11.5-10.1 5.4 0 10.7 4.6 11.3 10v.1h-1.4zM100 36H31.7V1.8H100V36zM17.7 22.5v-7.1c0-.2-.2-.4-.4-.4H8.7c-.2 0-.3.1-.3.2-.4.9-3.4 8.2-3.4 9.9v3.3c0 .2.2.4.4.4h3.1c1.2 0 9.2-4.4 9.2-6.3zM8.5 28H5.7v-2.3H13C11.1 27 9.1 28 8.5 28zm8.5-5.5c0 .5-1.2 1.5-2.8 2.5H5.8c.1-1.4 2.2-6.9 3.2-9.3h8v6.8z" fill="#6C7486"/></svg>