<svg width="56" height="56" fill="none" xmlns="http://www.w3.org/2000/svg"><path d="M38.235 18.54c-.975-.765-2.145-.765-2.925-.574.39-.574 1.56-.956 1.95-1.147.195.191.975.956.975 1.72zm2.729-3.059c-.585-3.058-7.798-.955-11.307-2.293 0 .955 1.17 2.293 2.34 2.867-1.95 1.72-3.705 4.969-4.095 8.983-.39-4.014-2.144-7.454-4.093-8.983 1.17-.574 2.339-1.912 2.339-2.867-3.704 1.338-10.917-.765-11.502 2.293-.195.574.195 1.53.585 1.911 0-.19.39-.955 1.365-.955 5.068-.765 9.357 6.88 5.458 9.938v.192h11.502s.195 0 0-.192c-3.899-3.058.39-10.703 5.459-9.938.974.191 1.364.764 1.364.955.39-.382.78-1.337.585-1.91zm1.17-6.88c0-.191 2.924-.383 2.924 1.529 0 1.146-1.755 1.72-1.755 3.058 0 .573.585.955.78.955-.39-2.102 1.365-.955 1.95-.573-.975-2.676 1.364-2.676.974-4.014-.195-.955-2.144-.573-2.924-1.146-.975-.765-2.534-3.823-3.509-.765 1.95 1.72.78 4.205-1.56 4.205v.382c2.73 0 3.704-2.102 3.12-3.631zM9.382 13.57c.585-.382 2.34-1.529 1.95.573.195 0 .78-.382.78-.955 0-1.338-1.755-1.912-1.755-3.058 0-1.912 2.925-1.912 2.925-1.53-.585 1.53.39 3.632 3.314 3.823v-.382c-2.34-.191-3.51-2.676-1.56-4.396-.975-3.058-2.534 0-3.704.956-.78.382-2.73 0-2.924.955-.195 1.338 1.95 1.338.975 4.014zm7.993 4.97c.975-.765 2.145-.765 2.925-.574-.39-.574-1.56-.956-1.95-1.147-.195.191-.975.956-.975 1.72zM29.072 1.72L27.708 0l-1.365 1.72 1.365 1.72 1.364-1.72zm7.798 4.778l-.975-1.146-.974 1.146.974 1.147.975-1.147zm7.993 33.83l-1.17-1.338-1.17 1.338 1.17 1.146 1.17-1.146zM20.494 6.498l-.974-1.146-.975 1.146.975 1.147.974-1.147zm-2.729 5.734h3.704c3.12 0 4.484-1.911 4.874-3.44h3.12c.389 1.529 1.754 3.44 4.873 3.44h3.704s.585-.764.78-1.338c.584-1.529-.195-2.293-1.17-2.293l-1.365 1.146-1.364-1.146c-.975 0-1.755.764-1.17 2.293 0 .191.195.383.39.765-1.365-.191-2.924-.956-3.314-2.867 0 0 .974-1.53 1.17-2.103.584-2.102-.585-2.866-2.145-2.866l-2.144 2.293-1.95-2.293c-1.56 0-2.73.955-1.754 3.058 0 .573.974 1.91.974 1.91-.39 1.912-1.95 2.677-3.314 2.868.195-.191.39-.574.39-.765.585-1.529-.195-2.293-1.17-2.293L19.52 9.747l-1.365-.955c-.975 0-1.754.764-1.17 2.293.195.383.78 1.147.78 1.147zM55.39 23.317c-.78.383-4.873 2.294-10.137 1.53 0-.192.195-.574.195-.765 3.509-.382 6.433-.956 8.188-1.911 2.144-1.147 2.924-3.823 1.95-5.925h-.196c-.585.573-4.094 4.396-9.942 5.734v-.956c2.73-1.53 5.458-3.25 6.823-4.97 1.95-2.484 1.755-5.542 0-7.071-.585.956-6.043 9.556-12.087 13.379 0 0-.195 0-.195.19-.195.192-.195.383 0 .383.78.574 1.17 1.53 1.17 2.485 0 1.72-1.365 3.058-2.924 3.249-.78.191-2.145.191-3.314-.191h-.195v5.16s.195.191.195 0c.78-1.911 2.924-2.293 3.899-2.293.39 2.102.974 3.822 1.754 4.587 1.365 1.529 3.51 1.529 4.289.382-.585-.382-3.704-2.102-4.289-5.16.195 0 .39-.192.78-.383.975 1.72 2.534 3.058 3.704 3.632 1.95.955 3.704.382 4.679-.956v-.191c-1.17-.191-5.069-1.147-6.629-3.631l.585-.574c1.755 1.338 4.094 2.294 5.654 2.485 1.95.191 4.289-.382 4.289-2.676-.78 0-5.459.191-8.773-1.72.195-.191.195-.382.39-.573 0 0 5.069 1.146 7.408.764 1.754 0 3.119-1.72 2.73-4.014zM10.942 26.95c.195.19.195.382.39.573-3.314 1.911-7.993 1.72-8.773 1.72 0 2.294 2.34 2.867 4.29 2.676 1.754-.191 4.093-1.338 5.653-2.485l.584.574c-1.56 2.485-5.263 3.631-6.628 3.631v.191c.78 1.338 2.535 1.72 4.679.956 1.17-.573 2.73-1.911 3.704-3.631.195.19.39.19.78.382-.585 3.058-3.704 4.97-4.289 5.16.975.956 3.12.956 4.289-.382.78-.956 1.364-2.676 1.754-4.587.975 0 3.12.382 3.9 2.293h.194v-5.16h-.195c-1.17.382-2.534.382-3.314.191-1.754-.382-2.924-1.72-2.924-3.249 0-.956.39-1.72 1.17-2.485.195-.19.195-.382 0-.382 0 0-.195 0-.195-.191C9.967 18.922 4.509 10.321 3.924 9.365h-.195c-1.755 1.53-1.95 4.778 0 7.072 1.365 1.529 3.899 3.44 6.823 4.97v.955C4.9 21.215 1.195 17.392.61 16.628H.415c-.975 2.102-.195 4.778 1.95 5.925 1.754.956 4.678 1.529 8.187 1.911 0 .191 0 .574.195.765-5.263.764-9.357-1.147-10.137-1.53H.415c-.195 2.103 1.17 3.823 3.509 4.205 1.95.192 7.018-.955 7.018-.955zm32.751 16.054l-1.754-1.337c-.78.382-1.17 1.146-1.56 1.91-1.17.192-4.094-.573-3.899-.955 3.314-4.587.78-7.263-2.34-7.072v3.059c0 .955-.779 1.72-1.949 1.72h-2.144c-1.56 0-2.534 1.529-2.534 1.529s-.975-1.53-2.535-1.53h-2.144c-1.17 0-1.95-.764-1.95-1.72V35.55c-3.119-.192-5.458 2.484-2.339 7.071.195.382-2.73 1.147-4.289.956-.39-.383-.975-.574-1.56-.574-.194 0-.584 0-.78.191 0 0-5.653-5.351-5.848-5.351v-.191c.975-.765.585-1.338.195-1.338.39-.382.39-2.294-1.56-2.676v1.147s-1.559-.764-2.339-.191c-.78.764.195 2.293.195 2.293H1.39c.585 1.912 2.535 1.72 2.925 1.338 0 .383.585.765 1.17.383l.194-.192 5.654 5.16c-.195.383-.39.765-.195 1.339.195.955.78 1.529 1.56 1.72.585.19 1.17 0 1.56-.191l1.559 1.338c.195.19.39.19.585.19.39 0 .584-.382.584-.573 0-.19 0-.19-.194-.382l-1.56-1.338c1.17-.764 3.509-1.338 5.263-1.338.39 0 .39-.19.39-.573-.78-1.911.975-3.44 2.925-2.294.78.574 1.754 1.53 2.339 3.25-3.12.764-7.018 2.675-7.798 4.969-.39.764.78 2.102 1.95 2.293.584-3.249 4.288-5.733 6.043-6.116 0 .191 0 .191.195.383-2.145.955-4.094 2.867-4.679 5.351-.195 1.147.975 2.102 1.95 2.294h.195c.194-3.058 1.56-5.543 2.729-6.69v.765s-1.17 3.44-1.17 5.925c0 1.146 1.755 1.91 1.95 2.102.39-.191 2.144-.956 2.144-2.102 0-2.485-1.17-5.925-1.17-5.925v-.765c1.17 1.147 2.535 3.823 2.73 6.69h.195c.974-.192 2.339-1.338 1.95-2.294-.586-2.293-2.535-4.396-4.68-5.351 0-.192 0-.192.195-.383 1.95.383 5.459 2.867 6.044 6.116 1.17-.19 2.144-1.337 1.95-2.293-.78-2.294-4.68-4.205-7.799-4.97.585-1.72 1.56-2.675 2.34-3.249 1.95-1.146 3.704.192 2.924 2.294-.195.191 0 .573.39.573 2.144 0 4.678.765 5.848 1.72.585.956 1.95 1.53 3.314 1.53 1.56-.192 2.925-1.338 2.925-2.676.194-1.338-.585-2.294-1.56-3.058l-1.56 1.146zM30.242 33.83c.585-.19 1.754 0 1.56.956 0 .191.194.191.39 0 .194-1.338-.78-1.72-1.755-1.529-.195-.382-.195-.956-.39-1.338 0-.382-.195-.956.195-.956.195 0 .195.574.195.765 0 .191 0 .382.195.382s.195-.19.39-.19c.585-.574.78-1.53 0-2.103-.585-.383-1.95-.191-2.34.382 0-.191-.39-.573-.39-.765-.195-.19-.195-.19 0-.382 0 0 .39-.382.39-.573 0-.191-.195-.382-.584-.382-.39 0-.585.19-.585.573v.382h-.975l3.704 9.939c.975-.574 1.754-1.338 1.754-2.103 0-.764-1.17-.573-1.56 0-.194-.955-.39-1.72-.584-2.675 0-.192.195-.192.39-.383zm-5.264-6.69l.78 2.103c-.585.191-1.754.574-1.754 1.338 0 .765 1.56 1.338 2.339 1.338 0 .191 0 .382.195.574-.39 0-.975.19-1.17.382-.39-.383-1.17-.574-1.56-.383-.39.192-.39.765 0 1.147.196.383.39.765 0 1.147.975 0 .585-1.338.975-1.338 0 .191 0 .573.195.956v.573c-.39.574-.78 1.72-.78 2.867-.39 0-.584 0-.39-.573 0-.192 0-.383-.194 0-.195.19-.195.573-.195.764 0 .956 1.17 1.147 1.56.956 1.364 1.338 3.898.955 4.678.573l-4.484-12.232c0-.382-.195-.382-.195-.191zm-.195 10.13c0-.573.585-1.337 1.56-2.293-.195.574 0 1.53.39 1.911-.78 0-1.56.191-1.95.383z" fill="#E2BB81"/></svg>