<svg width="73" height="69" viewBox="0 0 73 69" fill="none" xmlns="http://www.w3.org/2000/svg"><path d="M23.315 9.467l-1.962 1.952.588.585 1.962-1.952-.588-.585zm-5.886-5.954l-.588-.585-1.962 1.952.588.585 1.962-1.952zm1.275 1.27l-3.923 3.903 1.275 1.269L19.98 6.05l-1.276-1.269zm7.161 11.027l1.962-1.951-.589-.586-1.962 1.952.589.585zm-4.512-8.295L19.39 9.467l.589.585L21.94 8.1l-.588-.585zm10.986 14.737L34.3 20.3l-.589-.586-1.962 1.952.589.586zm-7.063-10.833l-1.961 1.952.588.585 1.962-1.952-.589-.585zm5.101 4.977l-1.275-1.269-3.924 3.904 1.275 1.269 3.924-3.904zm0 3.904l1.962-1.952-.589-.586-1.962 1.952.59.586zm27.269 31.035l3.923-3.904-1.275-1.268-3.923 3.904 1.275 1.268zm-2.55-6.441l1.961-1.952-.588-.586-1.962 1.952.589.586zm6.474 6.539l1.961-1.952-.588-.586-1.962 1.952.588.586zm-8.436-8.393l1.962-1.952-.589-.586-1.962 1.952.589.586zm3.923 3.806l1.962-1.952-.588-.586-1.962 1.952.588.586zm-5.885-5.758l1.962-1.952-.589-.586-1.962 1.952.589.586zm21.285 14.541L47.935 31.231l16.381-16.299c.294-.293.49-.78.49-1.269 0-.292-.098-.488-.196-.78l3.041-3.026a1.702 1.702 0 0 0 0-2.44L60.785.586C60.49.196 60 0 59.51 0c-.49 0-.883.195-1.276.488l-3.138 3.123c-.197-.098-.393-.098-.589-.098-.49 0-.883.196-1.275.488L37.047 20.397 17.037.489C16.743.195 16.252 0 15.762 0c-.49 0-.883.195-1.275.488l-10.3 10.345a1.703 1.703 0 0 0 0 2.44l20.01 19.91L5.462 51.92c-.196.195-.294.39-.392.585L.166 65.682c-.295.683-.197 1.366.294 1.854.294.293.785.488 1.275.488.196 0 .392 0 .588-.097l13.439-4.783c.294-.097.49-.195.686-.39l18.735-18.64 24.523 24.398c.294.293.784.488 1.275.488.49 0 .883-.195 1.275-.488l10.398-10.345c.49-.683.49-1.854-.197-2.538zM59.51 1.757l6.964 6.929-3.531 3.513-6.965-6.929 3.532-3.513zM5.364 12.102L15.762 1.757l20.01 19.91L25.375 32.01 5.365 12.1zm45.808-3.318l1.373 1.366L9.778 52.8c-.098.097-.98.585-2.354-.489L51.172 8.784zM1.735 66.364l1.57-4.098L5.952 64.9l-4.218 1.464zm13.438-4.781L7.032 64.51l-3.335-3.319 3.04-8.002.099-.098c.784.683 1.569.878 2.158.976l.49.488c.098.78.392 1.659 1.57 2.83 1.078 1.074 2.06 1.464 2.844 1.562l.392.39c-.098.488.099 1.269.883 2.245zm19.912-19.91l-1.275 1.171-17.95 17.958c-1.275-1.562-.49-2.44-.49-2.538v-.097l42.668-42.552-.686-.683L14.585 57.68c-.295.195-1.374.585-3.041-1.074-1.962-1.951-1.08-3.025-1.08-3.123l42.768-42.649 6.278 6.246.686-.683L51.86 8.1l2.746-2.732 7.651 7.612.785.781-16.283 16.298-1.275 1.172-10.398 10.442zm25.7 25.57L36.262 42.844 46.66 32.5l3.139 3.123-3.728 3.709 1.276 1.269 3.727-3.709 20.108 20.007-10.397 10.345zm-12.261-32.89l-.589-.585-1.962 1.952.589.586 1.962-1.952zm19.029 22.838l1.962-1.952-.589-.585-1.962 1.951.589.586zm-3.924-3.904l1.962-1.952-.588-.585-1.962 1.952.588.585zm1.962 1.952l1.962-1.952-.589-.585-1.961 1.952.588.585zM53.821 7.417c-.393.39-.393.879 0 1.269.392.39.882.39 1.275 0 .392-.39.392-.878 0-1.269-.295-.293-.883-.293-1.276 0zm2.942 2.928c-.392.39-.392.878 0 1.269.393.39.883.39 1.275 0 .393-.39.393-.879 0-1.269-.392-.39-.98-.39-1.275 0zm4.022 2.733c-.393-.39-.883-.39-1.275 0-.393.39-.393.878 0 1.269.392.39.882.39 1.275 0 .294-.39.294-.879 0-1.27z" fill="#6C7486"/></svg>