<svg width="83" height="70" fill="none" xmlns="http://www.w3.org/2000/svg"><path d="M46.159 20.404c-7.595 0-13.809 6.053-13.809 13.57 0 7.518 6.214 13.571 13.809 13.571 7.594 0 13.71-6.053 13.71-13.57 0-7.42-6.116-13.57-13.71-13.57zm-10.75 20.893c-1.48-2.05-2.368-4.588-2.368-7.224 0-1.367.197-2.734.69-4.003h7.595v.488c-.099 1.367-1.184 2.636-2.663 2.636h-3.255v8.103zm17.654 3.612c-1.973 1.27-4.34 1.953-6.904 1.953-3.945 0-7.595-1.757-9.962-4.589v-8.396h2.466c1.775 0 3.255-1.464 3.452-3.32v-.78c0-.39-.296-.684-.888-.684h-7.2C36 24.407 40.734 20.99 46.16 20.99c2.564 0 4.833.684 6.904 1.953v21.966zm1.775-1.367V24.505c2.663 2.343 4.34 5.76 4.34 9.567 0 3.808-1.677 7.127-4.34 9.47zm27.616 17.964l-15.386-15.23c-.296-.293-.789-.488-1.282-.488s-.888.195-1.282.488l-.197.195-3.058-3.026c-.099-.098-.099-.098-.197-.098 1.676-2.733 2.761-5.858 2.761-9.275 0-7.322-4.537-13.57-10.948-16.206V13.57c0-.488-.197-.878-.493-1.269L40.537.586C40.142.196 39.747 0 39.255 0H1.775A1.76 1.76 0 0 0 0 1.757v61.507c0 .976.789 1.757 1.775 1.757H51.09c.986 0 1.775-.781 1.775-1.757V50.18c1.085-.488 2.17-.976 3.255-1.66l.099.098 3.057 3.027-.197.195a1.697 1.697 0 0 0 0 2.44l15.386 15.23c.296.294.79.489 1.283.489.493 0 .887-.195 1.282-.488l5.622-5.565c.493-.586.493-1.757-.198-2.44zM50.498 12.887c-.789-.293-1.874-.293-2.86-.293h-6.51V6.151c0-1.27-.295-2.343-.69-3.222l10.06 9.958zm.592 50.377H1.775V1.757h36.986c.79.879 1.579 2.343 1.579 4.394v6.834c0 .195.197.39.394.39h6.904c2.071 0 3.156.098 3.452.976v2.832c-1.578-.488-3.156-.684-4.931-.684-8.088 0-14.893 5.468-16.965 12.79h-.986v-9.177h1.184c1.38 0 2.663-1.172 2.761-2.636v-.196c0-.39-.394-.78-.789-.78-.098 0-.296 0-.394.097H21.5c-.394 0-.789.39-.789.781 0 1.27 1.184 2.734 2.762 2.734h1.183v9.177h-1.183c-1.48 0-2.762 1.269-2.762 2.733v.196l-7.101-.098c-.197 0-.395.098-.592.195-.197.196-.197.39-.197.586 0 1.562 1.282 2.831 2.762 2.831h1.183v9.177h-1.183c-1.48 0-2.762 1.27-2.762 2.734 0 .39.394.781.789.781h9.863c.394 0 .789-.39.789-.781 0-1.465-1.282-2.734-2.762-2.734h-1.183v-9.177H21.5c1.381 0 2.663-1.171 2.762-2.636v-.292h4.34c0 .39-.099.781-.099 1.172 0 4.1 1.48 7.908 3.846 10.934h-1.084c-1.48 0-2.762 1.27-2.762 2.734 0 .39.394.781.789.781h6.904c2.86 1.953 6.214 3.026 9.962 3.026 1.676 0 3.353-.292 4.931-.683v12.497zM21.501 45.69c1.085 0 1.973.879 1.973 1.953H13.61c0-1.074.888-1.953 1.973-1.953h1.972V34.951h-1.973c-1.084 0-1.972-.976-1.972-2.05l9.863.098V32.9v.098c-.099 1.073-.888 1.952-1.973 1.952h-1.97v10.74h1.97zm0-13.668c0-1.074.888-1.952 1.973-1.952h1.973V19.33h-1.973c-1.085 0-1.973-1.171-1.973-1.952h9.863v-.098.098c-.098 1.074-.887 1.953-1.972 1.953h-1.973V30.07h1.578c-.197.683-.296 1.269-.296 1.952h-7.2zM33.14 45.69c.69.684 1.38 1.367 2.07 1.953h-5.818c0-1.074.887-1.953 1.972-1.953h1.776zm22.98.39c-.098.099-.197.294-.296.391-2.663 2.05-6.016 3.222-9.567 3.222-8.778 0-15.879-7.03-15.879-15.718 0-8.69 7.101-15.718 15.78-15.718 8.68 0 15.88 7.127 15.88 15.718 0 3.417-1.183 6.639-3.057 9.177-.1.098-.198.098-.296.195l-2.565 2.734zm1.381 1.368c.986-.781 1.874-1.66 2.565-2.636l3.747 3.71-2.663 2.538-3.649-3.612zm20.417 18.647L62.53 50.767l-.394.39 15.386 15.23-1.874 1.953-15.386-15.327 4.142-4.1 1.48-1.465 15.386 15.23-3.353 3.417z" fill="#6C7486"/></svg>