<svg width="84" height="72" viewBox="0 0 84 72" fill="none" xmlns="http://www.w3.org/2000/svg"><path d="M44.656 15.143C41.213 11.723 36 9.671 31.082 9.671c-4.918 0-9.64 2.051-13.082 5.47-3.541 3.517-5.508 8.109-5.508 12.994 0 4.884 2.065 9.476 5.508 12.895 2.164 2.15 4.328 3.713 6.492 4.396.59.196 1.082.294 1.672.294.787 0 1.377-.196 1.475-.391.394-.391.59-2.247.787-3.713.394-3.517.984-8.304 5.213-12.602 4.328-4.299 8.164-5.276 10.623-5.96 1.574-.488 2.361-.683 3.05-1.367.196-.195.885-.88-.099-2.93-.59-1.369-1.77-2.834-2.557-3.615zm-.886 6.252l-.295.098c-2.655.781-6.688 1.856-11.114 6.35-4.722 4.689-5.312 10.062-5.804 13.579v.195c-.098.587-.196 1.661-.295 2.247h-.196c-.296 0-.689-.097-1.082-.195-1.673-.488-3.541-1.759-5.705-3.908-3.246-3.224-5.017-7.327-5.017-11.723 0-4.396 1.77-8.597 5.017-11.82 3.246-3.225 7.475-4.983 11.901-4.983 4.623 0 9.246 1.856 12.295 4.982.689.684 1.672 1.954 2.263 3.126.295.586.295.88.295 1.075-.394.488-.886.586-2.263.977zm2.066 10.746c-3.738 0-6.885 3.029-6.885 6.839 0 3.81 3.049 6.838 6.885 6.838s6.885-3.028 6.885-6.838-3.147-6.839-6.885-6.839zm0 11.919c-2.852 0-5.115-2.345-5.115-5.08 0-2.833 2.361-5.08 5.115-5.08 2.852 0 5.115 2.344 5.115 5.08.098 2.735-2.263 5.08-5.115 5.08zm4.23-19.344c1.081-1.074 2.754-3.614.786-7.815-.885-1.954-2.36-3.81-3.442-4.885-3.836-3.712-8.754-6.057-14.066-6.545-.393-1.466-1.672-2.54-3.246-2.54-1.672 0-3.049 1.27-3.245 2.833a22.788 22.788 0 0 0-10.132 4.591c-.59-.39-1.18-.586-1.869-.586-1.868 0-3.344 1.466-3.344 3.322 0 .782.295 1.465.689 2.052-2.066 2.93-3.443 6.35-3.935 9.866-1.573.196-2.852 1.661-2.852 3.224 0 1.661 1.18 3.029 2.852 3.224.689 4.69 2.853 8.89 6.492 12.505 2.754 2.735 5.41 4.396 8.262 5.275.984.294 1.968.489 2.853.489 1.869 0 3.54-.586 4.623-1.66 1.475-1.466 1.77-3.616 1.967-6.058.393-3.028.787-6.545 4.033-9.867 3.54-3.517 6.098-4.298 8.36-4.885 1.968-.586 3.64-1.074 5.214-2.54zm-13.87 6.839c-3.54 3.517-3.934 7.23-4.229 10.258-.295 2.344-.492 4.298-1.77 5.568-1.476 1.466-4.033 1.856-6.689 1.075-2.754-.782-5.41-2.54-7.967-5.08C12 39.859 9.836 35.658 9.246 30.969v-.293H8.95c-1.377-.098-2.46-1.173-2.46-2.54 0-1.368 1.083-2.443 2.46-2.54h.295v-.293c.492-3.615 1.869-7.034 4.033-10.063l.196-.293-.196-.195c-.492-.489-.689-1.075-.689-1.759 0-1.367 1.18-2.54 2.558-2.54.59 0 1.18.196 1.672.586l.196.196.197-.196c2.95-2.344 6.492-4.005 10.23-4.689l.295-.098V5.96c.098-1.367 1.18-2.442 2.557-2.442 1.279 0 2.36.977 2.557 2.247v.293h.296c5.213.39 10.13 2.735 13.868 6.35 1.082 1.075 2.46 2.833 3.345 4.69 1.77 3.81.393 5.959-.689 6.936-1.377 1.367-2.95 1.856-4.623 2.344-2.557.782-5.213 1.563-8.852 5.178zm47.017 16.412h-.983c-.394 0-.787.294-.787.782v5.96H57.639a11.806 11.806 0 0 0 5.902-10.259c0-2.93-.885-5.275-1.869-7.717-.983-2.443-1.869-4.983-2.164-8.5 0-1.074-.098-2.051-.197-3.224v-.097c-.491-3.81-1.672-7.425-3.442-10.551 1.18-.098 2.852-.39 2.852-1.368 0-2.149-2.557-4.2-5.311-4.2-.492 0-.984.097-1.476.195C46.623 3.419 39.246 0 31.082 0 15.442 0 2.754 12.602 2.754 28.136c0 4.884 1.279 9.476 3.443 13.481 0 1.564-.099 5.178-1.87 6.937l.1.097c-.984.977-1.575 2.345-1.575 3.908 0 1.172.394 2.345 1.082 3.224C2.754 56.858 0 59.886 0 62.817 0 64.967.885 72 11.705 72h24.59c4.23 0 8.852-.684 9.443-2.247.098-.293.196-.781-.394-1.368-3.147-3.126-8.95-3.126-13.967-3.126h-19.77c-3.738 0-6.296-.977-6.984-2.833-.59-1.368 0-3.028 1.574-4.69.688.294 1.475.49 2.262.49 1.475 0 2.95-.587 3.934-1.564l.099.098c1.967-1.954 5.311-2.54 7.278-2.736 2.853 1.27 6 2.052 9.345 2.247v.098h54.098c.394 0 .787-.293.787-.782v-6.936c0-.39-.393-.684-.787-.684zM53.312 9.477c2.557 0 4.524 1.855 4.524 3.418 0 .196-.983.587-2.459.684a31.143 31.143 0 0 0-2.95-4.103c.294.098.59 0 .885 0zM6.885 42.886c.984 1.563 2.066 2.931 3.246 4.299-.492-.196-1.082-.293-1.672-.293a5.77 5.77 0 0 0-2.557.586c.688-1.368.885-3.224.983-4.592zm-2.852 19.93c.885 2.051 3.64 3.224 7.672 3.224h19.77c4.918 0 10.525-.098 13.476 2.93.295.294.197.489.197.489-.394.88-3.738 1.856-8.853 1.856H11.607C1.77 71.316.689 65.455.689 62.914c0-2.54 2.557-5.373 3.639-6.447.393.39.787.781 1.279.977-1.673 1.954-2.263 3.81-1.574 5.373zm4.426-6.35c-2.164 0-3.934-1.759-3.934-3.908 0-2.15 1.77-3.908 3.934-3.908s3.934 1.759 3.934 3.908c0 2.247-1.77 3.908-3.934 3.908zM13.574 55a5.27 5.27 0 0 0 .59-2.442c0-.781-.098-1.465-.393-2.051a23.707 23.707 0 0 0 4.72 2.93c-1.475.293-3.343.684-4.917 1.563zM30 54.708h-.197c-14.262-.684-25.377-12.31-25.377-26.572 0-14.654 12-26.573 26.656-26.573 13.574 0 24.984 10.063 26.557 23.447v.097c.099.977.197 2.052.197 3.029v.195c.394 3.712 1.377 6.448 2.36 8.89.984 2.443 1.771 4.592 1.771 7.132-.098 5.764-4.623 10.355-10.328 10.355H30zm53.213.88h-.983V48.65h.983v6.936z" fill="#6C7486"/></svg>