<svg width="28" height="28" fill="none" xmlns="http://www.w3.org/2000/svg"><path d="M17.536 2.107l-.94 2.777-.834 2.468a.96.96 0 0 0 .536 1.192l2.013.85a.955.955 0 0 1 .56 1.112c-.254 1.01-.435 2.174-2.118 5.084-1.682 2.91-2.595 3.65-3.343 4.375a.955.955 0 0 1-1.244.072l-1.742-1.319a.96.96 0 0 0-1.3.132l-1.667 1.896-1.988 2.263a.96.96 0 0 0 .053 1.324l1.615 1.562a2.354 2.354 0 0 0 1.613.674c1.992.012 6.112-.982 10.914-9.3 4.802-8.316 3.602-12.381 2.596-14.1a2.354 2.354 0 0 0-1.39-1.06l-2.16-.617a.96.96 0 0 0-1.174.615z" fill="#6C7486"/></svg>