<svg width="40" height="40" viewBox="0 0 40 40" fill="none" xmlns="http://www.w3.org/2000/svg"><path d="M19.99 0c4-.01 7.924 1.22 11.235 3.46l2.364-2.366.02-.02A3.79 3.79 0 0 1 35.88.01c.063-.01.115-.01.178-.01h.364c.062 0 .125.01.187.01.854.084 1.583.438 2.197.99.032.032.063.052.094.084a3.744 3.744 0 0 1 0 5.303l-2.364 2.365c2.291 3.303 3.405 7.242 3.457 11.243C39.992 31.039 31.038 40 20.002 40 8.964 40 0 31.05 0 20.005 0 8.961 8.954 0 19.99 0zm0 33.134c-.686 0-1.248.562-1.248 1.25v1.875c0 .688.562 1.25 1.249 1.25s1.25-.562 1.25-1.25v-1.875c0-.688-.563-1.25-1.25-1.25zM5.623 18.754H3.748c-.687 0-1.25.564-1.25 1.251 0 .688.563 1.25 1.25 1.25h1.874c.688 0 1.25-.562 1.25-1.25 0-.687-.562-1.25-1.25-1.25zm30.611 0H34.36c-.687 0-1.25.564-1.25 1.251 0 .688.563 1.25 1.25 1.25h1.874c.688 0 1.25-.562 1.25-1.25 0-.687-.562-1.25-1.25-1.25zM36.11 2.502a1.247 1.247 0 0 0-.76.364L19.99 18.234l-7.861-7.867a1.252 1.252 0 1 0-1.77 1.771l8.746 8.753c.49.49 1.28.49 1.77 0L37.118 4.637c.49-.49.49-1.282 0-1.772a1.33 1.33 0 0 0-.76-.364h-.25zm-16.118 0c-.687 0-1.25.562-1.25 1.25v1.876c0 .687.563 1.25 1.25 1.25s1.25-.563 1.25-1.25V3.75c0-.688-.563-1.25-1.25-1.25z" fill="#00A7FF"/></svg>