<svg width="46" height="42" viewBox="0 0 46 42" fill="none" xmlns="http://www.w3.org/2000/svg"><path d="M45.1 5.9c-.5-.6-1.3-.9-2.1-.9s-1.6.3-2.1.9L36 10.8V2c0-1-1-2-2-2H2C1 0 0 1 0 2v12.7C0 31.7 16.3 42 18 42c1.5 0 14.8-8.1 17.5-22.3l9.6-9.6c.6-.5.9-1.3.9-2.1s-.3-1.6-.9-2.1zM18.5 35.2c-.2.2-.6.4-.9.4-.2 0-.3-.1-.5-.2C15.1 34 5 26.5 5 14.6V5.8c0-.5.4-.9 1-.9h23.5c.5 0 .9.6.9 1.1 0 .5-.4 1.1-.9 1.1H7v7.5c0 10.5 9.4 18 11.3 19.3.4.3.5.9.2 1.3zM43.7 8.7L26 26.4l-9.7-9.7c-.4-.4-.4-1 0-1.4.4-.4 1-.4 1.4 0l8.3 8.3L42.3 7.3c.4-.4 1-.4 1.4 0 .4.4.4 1 0 1.4z" fill="#00A7FF"/></svg>