<svg width="18" height="18" viewBox="0 0 18 18" fill="none" xmlns="http://www.w3.org/2000/svg">
<path d="M0.350004 14.3129L2.34549 12.9825L4.11942 11.8001C4.46177 11.5723 4.92185 11.647 5.17459 11.9714L6.27226 13.3825C6.50805 13.6887 6.93221 13.7767 7.27033 13.5895C8.01515 13.1752 8.89591 12.7851 10.8393 10.8392C12.7826 8.89341 13.1752 8.01514 13.5895 7.27033C13.7767 6.9322 13.6887 6.50805 13.3825 6.27229L11.9714 5.17462C11.647 4.92192 11.5723 4.46184 11.8001 4.11946L12.9461 2.40016L14.3129 0.350012C14.5455 0.0010554 15.0112 -0.103709 15.3708 0.111972L16.9471 1.05759C17.3731 1.30857 17.6862 1.71385 17.8216 2.1894C18.2527 3.76097 18.3396 7.22779 12.7836 12.7838C7.22752 18.3398 3.761 18.2527 2.18943 17.8216C1.71388 17.6862 1.3086 17.3731 1.05762 16.947L0.111998 15.3708C-0.10372 15.0112 0.00104713 14.5455 0.350004 14.3129Z" fill="#00A7FF"/>
</svg>
