<svg width="143" height="51" viewBox="0 0 143 51" fill="none" xmlns="http://www.w3.org/2000/svg">
<path d="M16.101 6.30178e-05C19.4654 6.30178e-05 20.667 2.4032 21.3879 4.80633C21.8685 5.76759 30.7601 30.2796 31.0004 31.0005C31.0004 31.2408 31.0004 31.4811 30.7601 31.7214C30.5198 31.7214 25.7135 33.644 25.4732 33.644C25.2329 33.644 24.9926 33.644 24.9926 33.4036C24.9926 33.1633 23.0701 27.8764 22.8298 27.1555H9.61254C9.37223 27.6361 7.44972 33.1633 7.44972 33.4036C7.44972 33.644 6.96909 33.8843 6.72878 33.644C6.48846 33.644 1.92251 31.7214 1.44188 31.7214C1.20157 31.7214 0.961253 31.2408 1.20157 31.0005C1.44188 30.0393 10.3335 6.24821 10.8141 4.80633C11.535 2.4032 12.7366 6.30178e-05 16.101 6.30178e-05ZM0.480627 43.4968C0.240313 43.4968 0 43.7371 0 43.9774V49.745C0 49.9853 0.240313 50.2256 0.480627 50.2256H31.7214C31.9617 50.2256 32.202 49.9853 32.202 49.745V43.9774C32.202 43.7371 31.9617 43.4968 31.7214 43.4968H0.480627ZM16.101 7.93041L11.535 21.388H20.4266L16.101 7.93041ZM82.9082 29.7989C82.1872 30.0393 81.7066 30.0393 81.226 30.0393C80.2647 30.0393 79.5438 29.5586 79.5438 28.5974C79.5438 27.3958 80.2647 27.1555 81.7066 27.1555C81.9469 27.1555 82.4275 27.1555 82.6678 27.1555V27.8764C82.6678 28.8377 82.9082 29.3183 82.9082 29.7989ZM86.7532 31.0005C86.0322 29.7989 85.7919 29.078 85.7919 27.6361V24.512C85.7919 22.8298 85.5516 22.3492 85.071 21.6283C84.35 20.667 83.3888 20.4267 81.7066 20.4267C80.505 20.4267 79.0631 20.667 77.8616 20.9073L78.3422 23.0702C79.0631 23.0702 80.0244 22.8298 80.7453 22.8298C82.6678 22.8298 82.9082 23.0702 82.9082 24.512V24.9927C82.4275 24.9927 81.9469 24.7524 81.4663 24.7524C78.5825 24.7524 76.9003 26.1942 76.9003 28.5974C76.9003 30.7602 78.5825 31.9618 80.505 31.9618C81.226 31.9618 81.9469 31.7214 82.6678 31.4811C83.1485 31.2408 83.1485 31.2408 83.6291 31.0005C83.8694 31.4811 84.5904 31.9618 84.8307 31.9618C84.8307 32.4424 86.7532 31.0005 86.7532 31.0005ZM116.071 29.7989C115.35 30.0393 114.87 30.0393 114.389 30.0393C113.428 30.0393 112.707 29.5586 112.707 28.5974C112.707 27.3958 113.428 27.1555 114.87 27.1555C115.11 27.1555 115.591 27.1555 115.831 27.1555V27.8764C115.831 28.8377 116.071 29.3183 116.071 29.7989ZM119.916 31.0005C119.196 29.7989 118.955 29.078 118.955 27.6361V24.512C118.955 22.8298 118.715 22.3492 118.234 21.6283C117.754 20.667 116.552 20.4267 114.87 20.4267C113.668 20.4267 112.226 20.667 111.025 20.9073L111.505 23.0702C112.226 23.0702 113.188 22.8298 113.909 22.8298C115.831 22.8298 116.071 23.0702 116.071 24.512V24.9927C115.591 24.9927 115.11 24.7524 114.63 24.7524C111.746 24.7524 110.064 26.1942 110.064 28.5974C110.064 30.7602 111.746 31.9618 113.909 31.9618C114.63 31.9618 115.35 31.7214 116.071 31.4811C116.552 31.2408 116.552 31.2408 117.033 31.0005C117.273 31.4811 117.994 31.9618 118.234 31.9618L119.916 31.0005ZM142.987 32.2021C142.987 32.2021 141.304 28.8377 141.064 27.8764C140.583 26.9152 140.103 26.4345 139.382 26.1942C140.103 26.1942 140.583 25.7136 141.064 24.512C141.545 23.3105 141.785 23.0702 142.025 22.8298C142.266 22.5895 142.746 22.5895 142.746 22.5895L142.987 20.4267C142.506 20.4267 142.025 20.4267 141.545 20.4267C140.824 20.4267 140.343 20.667 139.862 21.1477C139.622 21.388 139.382 21.8686 139.142 22.3492C138.901 22.8298 138.661 23.3105 138.421 24.0314C138.18 24.512 137.94 24.9927 137.219 24.9927H136.738V15.8608H133.855V31.9618H136.738V27.3958H137.219C138.18 27.3958 138.18 27.6361 138.661 28.5974C139.142 29.5586 140.103 32.2021 140.103 32.2021H142.987ZM59.3574 32.2021H62.7218L57.4349 16.3414C56.9543 16.1011 56.2334 16.1011 55.5124 16.1011C54.7915 16.1011 54.5512 16.1011 53.8302 16.3414L48.303 32.2021H51.6674C51.6674 32.2021 52.148 30.7602 52.6287 29.078H58.3962C58.8768 30.7602 59.3574 32.2021 59.3574 32.2021ZM53.5899 26.4345C53.5899 26.4345 54.5512 23.3105 54.7915 22.8298C55.2721 21.6283 55.7527 19.4655 55.7527 19.4655C55.7527 19.4655 56.2334 21.6283 56.714 22.8298C56.9543 23.3105 57.6752 26.4345 57.6752 26.4345H53.5899ZM91.7997 24.512C90.8385 24.512 89.8773 25.4733 89.8773 26.4345C89.8773 27.3958 90.8385 28.3571 91.7997 28.3571C92.761 28.3571 93.7223 27.3958 93.7223 26.4345C93.7223 25.4733 92.761 24.512 91.7997 24.512ZM66.8072 16.1011H63.9234V32.2021H66.8072V16.1011ZM125.924 23.0702C127.606 23.0702 127.847 23.5508 127.847 24.7524V31.9618H130.731V24.512C130.731 22.8298 130.49 22.3492 130.01 21.6283C129.289 20.667 128.327 20.4267 126.165 20.4267C124.242 20.4267 122.8 20.667 121.358 21.1477V31.9618H124.242V23.0702C125.203 23.0702 125.203 23.0702 125.924 23.0702ZM74.2569 15.8608C72.3344 15.8608 71.3731 16.3414 70.8925 17.0623C70.4119 17.7833 70.1715 18.2639 70.1715 19.9461V21.388H68.7297V23.7911H70.1715V32.2021H73.0553V23.7911H75.9391V21.388H73.0553V20.1864C73.0553 18.7445 73.2956 18.5042 75.2181 18.5042C75.4584 18.5042 75.6988 18.5042 75.9391 18.5042L76.4197 16.1011C75.6988 15.8608 74.9778 15.8608 74.2569 15.8608ZM97.8076 15.8608C98.7688 15.8608 101.172 15.6204 102.614 15.6204C102.854 15.6204 103.094 15.6204 103.335 15.6204C106.219 15.6204 107.66 17.543 107.66 19.9461C107.66 21.6283 106.94 22.5895 105.257 23.3105C107.42 23.7911 108.381 25.4733 108.381 27.3958C108.381 28.8377 107.901 30.0393 107.18 30.7602C106.219 31.7214 104.777 32.2021 102.854 32.2021C101.172 32.2021 99.0092 32.2021 97.8076 32.2021V15.8608ZM102.614 18.5042C102.133 18.5042 101.412 18.5042 100.932 18.5042V22.3492H102.614C103.335 22.3492 103.815 22.1089 104.296 21.8686C104.536 21.6283 104.777 21.1477 104.777 20.4267C104.777 19.2251 104.056 18.5042 102.614 18.5042ZM102.614 29.5586C104.296 29.5586 105.257 28.8377 105.257 27.1555C105.257 26.6749 105.017 25.9539 104.536 25.7136C104.056 25.233 103.335 24.9927 102.614 24.9927H100.691V29.7989C101.412 29.5586 101.893 29.5586 102.614 29.5586Z" fill="#EE2A23"/>
</svg>
