<svg width="78" height="51" viewBox="0 0 78 51" fill="none" xmlns="http://www.w3.org/2000/svg">
<path fill-rule="evenodd" clip-rule="evenodd" d="M67.9947 12.3855H78L76.9995 17.7682H72.9556L71.9968 22.8565H75.6237L74.7066 27.9448H71.0796L67.2026 50.0222H61.241L67.9947 12.3855ZM65.8268 12.3855H59.7402L56.0716 32.1921C55.8215 33.5378 55.613 34.3788 55.4463 34.7993C55.2378 35.1358 54.9877 35.304 54.5708 35.304C54.2373 35.304 54.0289 35.1358 53.9872 34.8414C53.9455 34.505 54.0289 33.748 54.2373 32.5706L57.9893 12.3855H51.861L48.9011 28.3233C48.3592 31.3511 47.984 33.3275 47.9006 34.2947C47.8589 35.2619 47.984 36.145 48.3592 37.0281C48.6927 37.9112 49.4014 38.584 50.3602 39.0887C51.3608 39.6353 52.4864 39.9297 53.9038 39.9297C55.1961 39.9297 56.3218 39.7194 57.3223 39.2569C58.3645 38.8363 59.1983 38.1215 59.9487 37.2804C60.6574 36.3973 61.1994 35.5563 61.4495 34.7152C61.7413 33.8742 62.0331 32.4865 62.45 30.3839L65.8268 12.3855ZM40.9802 29.669C41.2304 26.5992 41.6056 22.8986 42.1892 18.399C40.605 23.5294 39.5211 27.23 38.9792 29.669H40.9802ZM47.1919 12.3855L45.3159 39.341H39.6879L40.2715 34.4629H38.1454L36.853 39.341H30.7664L39.3127 12.3855H47.1919ZM34.5184 12.3855H29.349L27.1395 24.5386L25.9305 12.3855H20.8445L15.8418 39.2989H20.9695L23.2207 27.0197L24.1379 39.2989H29.4741L34.5184 12.3855ZM18.093 12.5958L13.0486 24.7909L14.2993 39.341H8.6713L7.62907 29.711L5.83645 39.341H0L6.12827 0.0222168H12.0064L9.00481 21.5109L12.7151 12.5538H18.093V12.5958Z" fill="#00AEEF"/>
</svg>
