<svg width="209" height="38" viewBox="0 0 209 38" fill="none" xmlns="http://www.w3.org/2000/svg">
<path d="M0 19.2498H38.1934V3.1665e-05H0V19.2498Z" fill="#EE293D"/>
<path d="M0.00012207 37.7539H38.1935V18.877H0.00012207V37.7539Z" fill="#231F20"/>
<path d="M6.66345 20.0225H31.5121V17.7227H6.66345C6.66345 17.7315 6.66345 20.0225 6.66345 20.0225Z" fill="white"/>
<path d="M62.5572 9.42969C66.7151 9.42969 69.3194 12.1112 69.3194 15.8227C69.3194 19.6851 66.7061 21.9137 62.5572 21.9137H54.2863V28.2268H50.766V9.42969H62.5572ZM62.7637 18.806C64.5868 18.806 65.7273 17.5541 65.7273 15.8759C65.7273 14.0202 64.5867 12.5374 62.5572 12.5374H54.2863V18.806H62.7637Z" fill="#231F20"/>
<path d="M82.3767 28.7505C76.315 28.7505 71.304 24.7638 71.304 18.7971C71.304 12.9103 76.324 8.84371 82.3767 8.84371C88.4654 8.84371 93.4046 12.9014 93.4046 18.7971C93.4046 24.7727 88.4654 28.7505 82.3767 28.7505ZM82.3767 12.0668C77.9674 12.0668 74.95 15.0235 74.95 18.806C74.95 22.695 77.8417 25.5718 82.3767 25.5718C86.8939 25.5718 89.7496 22.6684 89.7496 18.806C89.7586 15.0146 86.8939 12.0668 82.3767 12.0668Z" fill="#231F20"/>
<path d="M108.007 28.7329C101.64 28.7329 96.8531 24.7462 96.8531 18.7795C96.8531 12.9105 101.72 8.85277 108.007 8.85277C111.761 8.85277 114.446 9.90938 116.852 11.6585L114.967 14.4199C113.224 13.0881 111.015 12.1114 108.106 12.1114C103.463 12.1114 100.571 15.0148 100.571 18.7795C100.571 22.6685 103.49 25.4654 108.15 25.4654C111.06 25.4654 113.368 24.542 115.119 23.2102L116.996 25.9627C114.598 27.7296 111.761 28.7329 108.007 28.7329Z" fill="#231F20"/>
<path d="M147.457 23.663L145.275 28.2268H141.468L150.717 9.42103H154.417L163.694 28.2268H159.886L157.704 23.663H147.457ZM148.921 20.6086H156.249L152.594 12.9904L148.921 20.6086Z" fill="#231F20"/>
<path d="M182.355 28.2268V20.1823H169.908V28.2268H166.379V9.42969H169.908V17.1013H182.355V9.42969H185.884V28.2268H182.355Z" fill="#231F20"/>
<path d="M191.102 28.2265V9.42944H194.631V18.202L204.186 9.42944H208.515L198.69 18.4861L208.928 28.2354H204.195L194.64 19.1076V28.2265H191.102Z" fill="#231F20"/>
<path d="M132.766 16.3199H124.513V12.3599H138.118V9.41211H120.992V28.2H132.775C136.923 28.2 139.788 25.9713 139.788 22.2599C139.779 18.4065 136.914 16.3199 132.766 16.3199ZM132.972 25.0923H124.513V19.4364H132.972C135.181 19.4364 136.438 20.5907 136.438 22.2688C136.43 24.1068 135.433 25.0923 132.972 25.0923Z" fill="#231F20"/>
</svg>
