<svg width="110" height="51" viewBox="0 0 110 51" fill="none" xmlns="http://www.w3.org/2000/svg">
<path d="M77.9506 4.46314V6.28709H93.2381C94.2469 6.28709 95.7989 6.28709 96.8078 7.31801C97.8166 8.34894 97.8166 9.93499 97.8166 10.9659V26.5884C97.8166 27.6194 97.8166 29.2054 96.8078 30.2363C95.7989 31.2673 94.2469 31.2673 93.2381 31.2673H85.866C84.5855 31.2673 82.9171 31.2673 82.2963 29.8398C81.6755 28.4124 82.5679 27.1039 83.3051 26.073L93.2381 12.552H77.9506L71.8201 20.8787C70.8113 22.2665 69.9189 23.4957 69.9189 25.042C69.9189 26.5884 70.7337 27.7383 71.8201 29.2054L73.3333 31.2673C74.8466 33.3291 76.3986 35.4306 78.4162 36.4616C80.4727 37.4925 82.8783 37.4925 86.1764 37.4925H92.8113C96.6525 37.4925 102.356 37.4925 106.198 33.6067C110 29.7209 110 23.9715 110 21.9096V15.6447C110 13.5432 110 7.83348 106.198 3.94767C102.395 0.0222168 96.6914 0.0222168 92.8501 0.0222168H82.2963C81.2875 0.0222168 80.0071 0.0222168 78.9982 1.05314C77.9506 2.12372 77.9506 3.39256 77.9506 4.46314Z" fill="#FA3E3E"/>
<path d="M59.5979 12.5123H74.8854L56.5714 37.4925H41.284L59.5979 12.5123Z" fill="#FA3E3E"/>
<path d="M0 16.9532C0 15.9223 0 14.6138 1.00882 13.5829C2.01764 12.552 3.29806 12.552 4.30688 12.552H29.9153C33.2134 12.552 35.6578 12.552 37.6755 13.5829C39.6931 14.6138 41.2451 16.7153 42.7584 18.7772L44.2716 20.839C45.358 22.3061 46.1728 23.456 46.1728 25.0024C46.1728 26.5488 45.2804 27.778 44.2716 29.1658L38.1411 37.4925H22.9312L32.8642 23.9715C33.6402 22.9405 34.5326 21.6321 33.873 20.2046C33.2522 18.7772 31.5838 18.7772 30.3034 18.7772H18.3527V50.0222H6.13051V18.7772H0V16.9532Z" fill="#FA3E3E"/>
</svg>
