<svg width="56" height="56" viewBox="0 0 56 56" fill="none" xmlns="http://www.w3.org/2000/svg">
<path d="M38.2347 18.5392C37.26 17.7747 36.0903 17.7747 35.3105 17.9659C35.7004 17.3925 36.8701 17.0102 37.26 16.8191C37.455 17.0102 38.2347 17.7747 38.2347 18.5392ZM40.964 15.4812C40.3792 12.4232 33.1661 14.5256 29.6571 13.1877C29.6571 14.1433 30.8267 15.4812 31.9964 16.0546C30.047 17.7747 28.2924 21.0239 27.9025 25.0375C27.5126 21.0239 25.7581 17.5836 23.8086 16.0546C24.9783 15.4812 26.148 14.1433 26.148 13.1877C22.444 14.5256 15.2309 12.4232 14.6461 15.4812C14.4511 16.0546 14.841 17.0102 15.2309 17.3925C15.2309 17.2014 15.6208 16.4369 16.5956 16.4369C21.6642 15.6724 25.9531 23.3174 22.0541 26.3754V26.5666H33.556C33.556 26.5666 33.751 26.5666 33.556 26.3754C29.6571 23.3174 33.9459 15.6724 39.0145 16.4369C39.9893 16.628 40.3792 17.2014 40.3792 17.3925C40.7691 17.0102 41.159 16.0546 40.964 15.4812ZM42.1337 8.60068C42.1337 8.40956 45.0579 8.21843 45.0579 10.1297C45.0579 11.2765 43.3034 11.8498 43.3034 13.1877C43.3034 13.7611 43.8882 14.1433 44.0832 14.1433C43.6933 12.041 45.4478 13.1877 46.0327 13.57C45.0579 10.8942 47.3973 10.8942 47.0074 9.55631C46.8124 8.60068 44.863 8.98294 44.0832 8.40956C43.1084 7.64505 41.5489 4.58703 40.5741 7.64505C42.5236 9.36519 41.3539 11.8498 39.0145 11.8498V12.2321C41.7438 12.2321 42.7185 10.1297 42.1337 8.60068ZM9.3825 13.57C9.96735 13.1877 11.7219 12.041 11.332 14.1433C11.5269 14.1433 12.1118 13.7611 12.1118 13.1877C12.1118 11.8498 10.3572 11.2765 10.3572 10.1297C10.3572 8.21843 13.2815 8.21843 13.2815 8.60068C12.6966 10.1297 13.6713 12.2321 16.5956 12.4232V12.041C14.2562 11.8498 13.0865 9.36519 15.036 7.64505C14.0612 4.58703 12.5017 7.64505 11.332 8.60068C10.5522 8.98294 8.60271 8.60068 8.40776 9.55631C8.21282 10.8942 10.3572 10.8942 9.3825 13.57ZM17.3754 18.5392C18.3501 17.7747 19.5198 17.7747 20.2996 17.9659C19.9097 17.3925 18.74 17.0102 18.3501 16.8191C18.1551 17.0102 17.3754 17.7747 17.3754 18.5392ZM29.0722 1.72014L27.7076 0L26.3429 1.72014L27.7076 3.44027L29.0722 1.72014ZM36.8701 6.49829L35.8954 5.35154L34.9206 6.49829L35.8954 7.64505L36.8701 6.49829ZM44.863 40.3276L43.6933 38.9898L42.5236 40.3276L43.6933 41.4744L44.863 40.3276ZM20.4945 6.49829L19.5198 5.35154L18.545 6.49829L19.5198 7.64505L20.4945 6.49829ZM17.7653 12.2321H21.4693C24.5884 12.2321 25.9531 10.3208 26.3429 8.79181H29.4621C29.852 10.3208 31.2166 12.2321 34.3358 12.2321H38.0398C38.0398 12.2321 38.6246 11.4676 38.8196 10.8942C39.4044 9.36519 38.6246 8.60068 37.6499 8.60068L36.2853 9.74744L34.9206 8.60068C33.9459 8.60068 33.1661 9.36519 33.751 10.8942C33.751 11.0853 33.9459 11.2765 34.1409 11.6587C32.7762 11.4676 31.2166 10.7031 30.8267 8.79181C30.8267 8.79181 31.8015 7.2628 31.9964 6.68942C32.5813 4.58703 31.4116 3.82253 29.852 3.82253L27.7076 6.11604L25.7581 3.82253C24.1985 3.82253 23.0288 4.77816 24.0036 6.88055C24.0036 7.45393 24.9783 8.79181 24.9783 8.79181C24.5884 10.7031 23.0288 11.4676 21.6642 11.6587C21.8592 11.4676 22.0541 11.0853 22.0541 10.8942C22.6389 9.36519 21.8591 8.60068 20.8844 8.60068L19.5198 9.74744L18.1551 8.79181C17.1804 8.79181 16.4006 9.55632 16.9855 11.0853C17.1804 11.4676 17.7653 12.2321 17.7653 12.2321ZM55.3901 23.3174C54.6104 23.6997 50.5165 25.6109 45.2529 24.8464C45.2529 24.6553 45.4478 24.273 45.4478 24.0819C48.9569 23.6997 51.8811 23.1263 53.6356 22.1707C55.78 21.0239 56.5598 18.3481 55.5851 16.2457H55.3901C54.8053 16.8191 51.2962 20.6416 45.4478 21.9795C45.4478 21.5973 45.4478 21.4061 45.4478 21.0239C48.1771 19.4949 50.9063 17.7747 52.271 16.0546C54.2205 13.57 54.0255 10.5119 52.271 8.98293C51.6861 9.93857 46.2276 18.5392 40.1842 22.3618C40.1842 22.3618 39.9893 22.3618 39.9893 22.5529C39.7943 22.744 39.7943 22.9352 39.9893 22.9352C40.7691 23.5085 41.159 24.4642 41.159 25.4198C41.159 27.1399 39.7943 28.4778 38.2347 28.6689C37.455 28.8601 36.0903 28.8601 34.9206 28.4778H34.7257V33.6382C34.7257 33.6382 34.9206 33.8294 34.9206 33.6382C35.7004 31.727 37.8449 31.3447 38.8196 31.3447C39.2095 33.4471 39.7943 35.1672 40.5741 35.9317C41.9388 37.4608 44.0832 37.4608 44.863 36.314C44.2781 35.9317 41.159 34.2116 40.5741 31.1536C40.7691 31.1536 40.964 30.9625 41.3539 30.7713C42.3287 32.4915 43.8882 33.8294 45.0579 34.4027C47.0074 35.3584 48.7619 34.785 49.7367 33.4471V33.256C48.567 33.0648 44.668 32.1092 43.1084 29.6246C43.3034 29.4334 43.4983 29.2423 43.6933 29.0512C45.4478 30.3891 47.7872 31.3447 49.3468 31.5358C51.2962 31.727 53.6356 31.1536 53.6356 28.8601C52.8558 28.8601 48.1771 29.0512 44.863 27.1399C45.0579 26.9488 45.0579 26.7577 45.2529 26.5666C45.2529 26.5666 50.3215 27.7133 52.6609 27.3311C54.4154 27.3311 55.78 25.6109 55.3901 23.3174ZM10.9421 26.9488C11.137 27.1399 11.137 27.3311 11.332 27.5222C8.01787 29.4334 3.33912 29.2423 2.55933 29.2423C2.55933 31.5358 4.89871 32.1092 6.84818 31.9181C8.60271 31.727 10.9421 30.5802 12.5017 29.4334C12.6966 29.6246 12.8916 29.8157 13.0865 30.0068C11.5269 32.4915 7.82292 33.6382 6.45829 33.6382C6.45829 33.6382 6.45829 33.6382 6.45829 33.8294C7.23808 35.1672 8.99261 35.5495 11.137 34.785C12.3067 34.2116 13.8663 32.8737 14.841 31.1536C15.036 31.3447 15.2309 31.3447 15.6208 31.5358C15.036 34.5939 11.9168 36.5051 11.332 36.6962C12.3067 37.6519 14.4511 37.6519 15.6208 36.314C16.4006 35.3584 16.9855 33.6382 17.3754 31.727C18.3501 31.727 20.4945 32.1092 21.2743 34.0205H21.4693V28.8601C21.4693 28.8601 21.4693 28.8601 21.2743 28.8601C20.1046 29.2423 18.74 29.2423 17.9602 29.0512C16.2057 28.6689 15.036 27.3311 15.036 25.802C15.036 24.8464 15.4259 24.0819 16.2057 23.3174C16.4006 23.1263 16.4006 22.9352 16.2057 22.9352C16.2057 22.9352 16.0107 22.9352 16.0107 22.744C9.96734 18.9215 4.50881 10.3208 3.92397 9.36519C3.92397 9.36519 3.92397 9.36519 3.72902 9.36519C1.97449 10.8942 1.77954 14.1433 3.72902 16.4369C5.09365 17.9659 7.62797 19.8771 10.5522 21.4061C10.5522 21.5973 10.5522 21.9795 10.5522 22.3618C4.89871 21.215 1.1947 17.3925 0.609858 16.628H0.41491C-0.559828 18.7304 0.219963 21.4061 2.36439 22.5529C4.11892 23.5085 7.04313 24.0819 10.5522 24.4642C10.5522 24.6553 10.5522 25.0375 10.7471 25.2287C5.48355 25.9932 1.38965 24.0819 0.609858 23.6997H0.41491C0.219963 25.802 1.5846 27.5222 3.92397 27.9044C5.87344 28.0956 10.9421 26.9488 10.9421 26.9488ZM43.6933 43.0034L41.9388 41.6655C41.159 42.0478 40.7691 42.8123 40.3792 43.5768C39.2095 43.7679 36.2853 43.0034 36.4802 42.6212C39.7943 38.0341 37.26 35.3584 34.1409 35.5495V38.6075C34.1409 39.5631 33.3611 40.3276 32.1914 40.3276H30.047C28.4874 40.3276 27.5126 41.8567 27.5126 41.8567C27.5126 41.8567 26.5379 40.3276 24.9783 40.3276H22.8339C21.6642 40.3276 20.8844 39.5631 20.8844 38.6075V35.5495C17.7652 35.3584 15.4259 38.0341 18.545 42.6212C18.74 43.0034 15.8158 43.7679 14.2562 43.5768C13.8663 43.1945 13.2815 43.0034 12.6966 43.0034C12.5017 43.0034 12.1118 43.0034 11.9168 43.1945C11.9168 43.1945 6.26334 37.843 6.06839 37.843V37.6519C7.04313 36.8874 6.65323 36.314 6.26334 36.314C6.65323 35.9317 6.65323 34.0205 4.70376 33.6382C4.70376 34.0205 4.70376 34.785 4.70376 34.785C4.70376 34.785 3.14418 34.0205 2.36439 34.5939C1.5846 35.3584 2.55933 36.8874 2.55933 36.8874C2.55933 36.8874 1.77954 36.8874 1.38965 36.8874C1.97449 38.7986 3.92397 38.6075 4.31386 38.2253C4.31386 38.6075 4.89871 38.9898 5.48355 38.6075L5.6785 38.4164L11.332 43.5768C11.137 43.959 10.9421 44.3413 11.137 44.9147C11.332 45.8703 11.9168 46.4437 12.6966 46.6348C13.2815 46.8259 13.8663 46.6348 14.2562 46.4437L15.8158 47.7816C16.0107 47.9727 16.2057 47.9727 16.4006 47.9727C16.7905 47.9727 16.9855 47.5904 16.9855 47.3993C16.9855 47.2082 16.9855 47.2082 16.7905 47.0171L15.2309 45.6792C16.4006 44.9147 18.74 44.3413 20.4945 44.3413C20.8844 44.3413 20.8844 44.1502 20.8844 43.7679C20.1046 41.8567 21.8591 40.3276 23.8086 41.4744C24.5884 42.0478 25.5632 43.0034 26.148 44.7235C23.0288 45.4881 19.1299 47.3993 18.3501 49.6928C17.9602 50.4573 19.1299 51.7952 20.2996 51.9864C20.8844 48.7372 24.5884 46.2526 26.3429 45.8703C26.3429 46.0614 26.3429 46.0614 26.5379 46.2526C24.3935 47.2082 22.444 49.1195 21.8591 51.6041C21.6642 52.7509 22.8339 53.7065 23.8086 53.8976H24.0036C24.1985 50.8396 25.5632 48.3549 26.7328 47.2082C26.7328 47.3993 26.7328 47.5904 26.7328 47.9727C26.7328 47.9727 25.5632 51.413 25.5632 53.8976C25.5632 55.0444 27.3177 55.8089 27.5126 56C27.9025 55.8089 29.6571 55.0444 29.6571 53.8976C29.6571 51.413 28.4874 47.9727 28.4874 47.9727C28.4874 47.7816 28.4874 47.5904 28.4874 47.2082C29.6571 48.3549 31.0217 51.0307 31.2166 53.8976C31.2166 53.8976 31.2166 53.8976 31.4116 53.8976C32.3863 53.7065 33.751 52.5597 33.3611 51.6041C32.7762 49.3106 30.8267 47.2082 28.6823 46.2526C28.6823 46.0614 28.6823 46.0614 28.8773 45.8703C30.8267 46.2526 34.3358 48.7372 34.9206 51.9864C36.0903 51.7952 37.0651 50.6485 36.8701 49.6928C36.0903 47.3993 32.1914 45.4881 29.0722 44.7235C29.6571 43.0034 30.6318 42.0478 31.4116 41.4744C33.3611 40.3276 35.1156 41.6655 34.3358 43.7679C34.1409 43.959 34.3358 44.3413 34.7257 44.3413C36.8701 44.3413 39.4044 45.1058 40.5741 46.0614C41.159 47.0171 42.5236 47.5904 43.8882 47.5904C45.4478 47.3993 46.8125 46.2526 46.8125 44.9147C47.0074 43.5768 46.2276 42.6212 45.2529 41.8567L43.6933 43.0034ZM30.2419 33.8294C30.8267 33.6382 31.9964 33.8294 31.8015 34.785C31.8015 34.9761 31.9964 34.9761 32.1914 34.785C32.3863 33.4471 31.4116 33.0648 30.4368 33.256C30.2419 32.8737 30.2419 32.3003 30.047 31.9181C30.047 31.5358 29.852 30.9625 30.2419 30.9625C30.4368 30.9625 30.4368 31.5358 30.4368 31.727C30.4368 31.9181 30.4368 32.1092 30.6318 32.1092C30.8267 32.1092 30.8267 31.9181 31.0217 31.9181C31.6065 31.3447 31.8015 30.3891 31.0217 29.8157C30.4368 29.4334 29.0722 29.6246 28.6823 30.198C28.6823 30.0068 28.2924 29.6246 28.2924 29.4334C28.0975 29.2423 28.0975 29.2423 28.2924 29.0512C28.2924 29.0512 28.6823 28.6689 28.6823 28.4778C28.6823 28.2867 28.4874 28.0956 28.0975 28.0956C27.7076 28.0956 27.5126 28.2867 27.5126 28.6689C27.5126 28.8601 27.5126 28.8601 27.5126 29.0512C27.3177 29.0512 26.7328 29.0512 26.5379 29.0512L30.2419 38.9898C31.2166 38.4164 31.9964 37.6519 31.9964 36.8874C31.9964 36.1229 30.8267 36.314 30.4368 36.8874C30.2419 35.9317 30.0469 35.1672 29.852 34.2116C29.852 34.0205 30.0469 34.0205 30.2419 33.8294ZM24.9783 27.1399L25.7581 29.2423C25.1733 29.4334 24.0036 29.8157 24.0036 30.5802C24.0036 31.3447 25.5632 31.9181 26.3429 31.9181C26.3429 32.1092 26.3429 32.3003 26.5379 32.4915C26.148 32.4915 25.5632 32.6826 25.3682 32.8737C24.9783 32.4915 24.1985 32.3003 23.8086 32.4915C23.4187 32.6826 23.4187 33.256 23.8086 33.6382C24.0036 34.0205 24.1985 34.4027 23.8086 34.785C24.7834 34.785 24.3935 33.4471 24.7834 33.4471C24.7834 33.6382 24.7834 34.0205 24.9783 34.4027C24.9783 34.5939 24.9783 34.785 24.9783 34.9761C24.5884 35.5495 24.1985 36.6962 24.1985 37.843C23.8086 37.843 23.6137 37.843 23.8086 37.2696C23.8086 37.0785 23.8086 36.8874 23.6137 37.2696C23.4187 37.4608 23.4187 37.843 23.4187 38.0341C23.4187 38.9898 24.5884 39.1809 24.9783 38.9898C26.3429 40.3276 28.8773 39.9454 29.6571 39.5631L25.1733 27.3311C25.1733 26.9488 24.9783 26.9488 24.9783 27.1399ZM24.7834 37.2696C24.7834 36.6962 25.3682 35.9317 26.3429 34.9761C26.148 35.5495 26.3429 36.5051 26.7328 36.8874C25.9531 36.8874 25.1733 37.0785 24.7834 37.2696Z" fill="#E2BB81"/>
</svg>
