<svg width="84" height="72" viewBox="0 0 84 72" fill="none" xmlns="http://www.w3.org/2000/svg">
<path d="M44.6557 15.1425C41.2131 11.7232 36 9.67164 31.082 9.67164C26.1639 9.67164 21.4426 11.7232 18 15.1425C14.459 18.6594 12.4918 23.251 12.4918 28.1357C12.4918 33.0204 14.5574 37.6119 18 41.0312C20.1639 43.1805 22.3279 44.7436 24.4918 45.4274C25.082 45.6228 25.5738 45.7205 26.1639 45.7205C26.9508 45.7205 27.541 45.5251 27.6393 45.3297C28.0328 44.9389 28.2295 43.0828 28.4262 41.6174C28.8197 38.1004 29.4098 33.3134 33.6393 29.0149C37.9672 24.7164 41.8033 23.7395 44.2623 23.0556C45.8361 22.5672 46.623 22.3718 47.3115 21.6879C47.5082 21.4925 48.1967 20.8087 47.2131 18.7571C46.6229 17.3894 45.4426 15.924 44.6557 15.1425ZM43.7705 21.3948L43.4754 21.4925C40.8197 22.2741 36.7869 23.3487 32.3607 27.8426C27.6393 32.5319 27.0492 37.905 26.5574 41.422V41.6174C26.459 42.2035 26.3607 43.2782 26.2623 43.8643C26.1639 43.8643 26.1639 43.8643 26.0656 43.8643C25.7705 43.8643 25.377 43.7666 24.9836 43.6689C23.3115 43.1805 21.4426 41.9104 19.2787 39.7612C16.0328 36.5373 14.2623 32.4342 14.2623 28.038C14.2623 23.6418 16.0328 19.441 19.2787 16.2171C22.5246 12.9932 26.7541 11.2347 31.1803 11.2347C35.8033 11.2347 40.4262 13.0909 43.4754 16.2171C44.1639 16.901 45.1475 18.171 45.7377 19.3433C46.0328 19.9294 46.0328 20.2225 46.0328 20.4179C45.6393 20.9064 45.1475 21.0041 43.7705 21.3948ZM45.8361 32.1411C42.0984 32.1411 38.9508 35.1696 38.9508 38.9796C38.9508 42.7897 42 45.8182 45.8361 45.8182C49.6721 45.8182 52.7213 42.7897 52.7213 38.9796C52.7213 35.1696 49.5738 32.1411 45.8361 32.1411ZM45.8361 44.0597C42.9836 44.0597 40.7213 41.7151 40.7213 38.9796C40.7213 36.1465 43.082 33.8996 45.8361 33.8996C48.6885 33.8996 50.9508 36.2442 50.9508 38.9796C51.0492 41.7151 48.6885 44.0597 45.8361 44.0597ZM50.0656 24.7164C51.1475 23.6418 52.8197 21.1018 50.8525 16.9009C49.9672 14.9471 48.4918 13.0909 47.4098 12.0163C43.5738 8.30394 38.6557 5.95929 33.3443 5.47083C32.9508 4.00543 31.6721 2.9308 30.0984 2.9308C28.4262 2.9308 27.0492 4.20081 26.8525 5.76391C23.1148 6.44776 19.6721 8.01086 16.7213 10.3555C16.1311 9.96472 15.541 9.76934 14.8525 9.76934C12.9836 9.76934 11.5082 11.2347 11.5082 13.0909C11.5082 13.8725 11.8033 14.5563 12.1967 15.1425C10.1311 18.0733 8.7541 21.4925 8.26229 25.0095C6.68852 25.2049 5.40984 26.6703 5.40984 28.2334C5.40984 29.8942 6.59016 31.2619 8.26229 31.4573C8.95082 36.1465 11.1148 40.3474 14.7541 43.962C17.5082 46.6974 20.1639 48.3582 23.0164 49.2375C24 49.5305 24.9836 49.7259 25.8689 49.7259C27.7377 49.7259 29.4098 49.1398 30.4918 48.0651C31.9672 46.5997 32.2623 44.4505 32.459 42.0081C32.8525 38.9796 33.2459 35.4627 36.4918 32.1411C40.0328 28.6242 42.5902 27.8426 44.8525 27.2564C46.8197 26.6703 48.4918 26.1818 50.0656 24.7164ZM36.1967 31.555C32.6557 35.0719 32.2623 38.7843 31.9672 41.8128C31.6721 44.1574 31.4754 46.1113 30.1967 47.3813C28.7213 48.8467 26.1639 49.2374 23.5082 48.4559C20.7541 47.6744 18.0984 45.9159 15.541 43.3759C12 39.8589 9.83607 35.6581 9.2459 30.9688V30.6757H8.95082C7.57377 30.578 6.4918 29.5034 6.4918 28.1357C6.4918 26.768 7.57377 25.6934 8.95082 25.5957H9.2459V25.3026C9.7377 21.6879 11.1148 18.2687 13.2787 15.2402L13.4754 14.9471L13.2787 14.7517C12.7869 14.2632 12.5902 13.6771 12.5902 12.9932C12.5902 11.6255 13.7705 10.4532 15.1475 10.4532C15.7377 10.4532 16.3279 10.6486 16.8197 11.0393L17.0164 11.2347L17.2131 11.0393C20.1639 8.69471 23.7049 7.03392 27.4426 6.35007L27.7377 6.25237V5.95929C27.8361 4.59159 28.918 3.51696 30.2951 3.51696C31.5738 3.51696 32.6557 4.49389 32.8525 5.76391V6.05699H33.1475C38.3607 6.44776 43.2787 8.7924 47.0164 12.4071C48.0984 13.4817 49.4754 15.2402 50.3607 17.0963C52.1311 20.9064 50.7541 23.0556 49.6721 24.0326C48.2951 25.4003 46.7213 25.8887 45.0492 26.3772C42.4918 27.1588 39.8361 27.9403 36.1967 31.555ZM83.2131 47.9674H82.2295C81.8361 47.9674 81.4426 48.2605 81.4426 48.749V54.7083H57.6393C61.1803 52.6567 63.541 48.8467 63.541 44.4505C63.541 41.5197 62.6557 39.175 61.6721 36.7327C60.6885 34.2904 59.8033 31.7503 59.5082 28.2334C59.5082 27.1588 59.4098 26.1818 59.3115 25.0095V24.9118C58.8197 21.1018 57.6393 17.4871 55.8689 14.3609C57.0492 14.2632 58.7213 13.9701 58.7213 12.9932C58.7213 10.844 56.1639 8.7924 53.4098 8.7924C52.918 8.7924 52.4262 8.89009 51.9344 8.98779C46.623 3.41927 39.2459 0 31.082 0C15.4426 0 2.7541 12.6024 2.7541 28.1357C2.7541 33.0204 4.03279 37.6119 6.19672 41.6174C6.19672 43.1805 6.09836 46.7951 4.32787 48.5536L4.42623 48.6513C3.44262 49.6282 2.85246 50.9959 2.85246 52.559C2.85246 53.7313 3.2459 54.9037 3.93443 55.7829C2.7541 56.8575 0 59.886 0 62.8168C0 64.9661 0.885246 72 11.7049 72H36.2951C40.5246 72 45.1475 71.3161 45.7377 69.7531C45.8361 69.46 45.9344 68.9715 45.3443 68.3853C42.1967 65.2592 36.3934 65.2592 31.377 65.2592H11.6066C7.86885 65.2592 5.31148 64.2822 4.62295 62.4261C4.03279 61.0583 4.62295 59.3976 6.19672 57.7368C6.88525 58.0299 7.67213 58.2252 8.45902 58.2252C9.93443 58.2252 11.4098 57.6391 12.3934 56.6621L12.4918 56.7598C14.459 54.806 17.8033 54.2198 19.7705 54.0244C22.6229 55.2944 25.7705 56.076 29.1148 56.2714V56.3691H83.2131C83.6066 56.3691 84 56.076 84 55.5875V48.6513C84 48.2605 83.6066 47.9674 83.2131 47.9674ZM53.3115 9.47626C55.8689 9.47626 57.8361 11.3324 57.8361 12.8955C57.8361 13.0909 56.8525 13.4817 55.377 13.5794C54.4918 12.114 53.5082 10.7463 52.4262 9.47626C52.7213 9.57395 53.0164 9.47626 53.3115 9.47626ZM6.88525 42.8874C7.86885 44.4505 8.95082 45.8182 10.1311 47.1859C9.63934 46.9905 9.04918 46.8928 8.45902 46.8928C7.57377 46.8928 6.68852 47.0882 5.90164 47.479C6.59016 46.1113 6.78688 44.2551 6.88525 42.8874ZM4.03279 62.8168C4.91803 64.8684 7.67213 66.0407 11.7049 66.0407H30.0984H31.4754C36.3934 66.0407 42 65.943 44.9508 68.9715C45.2459 69.2646 45.1475 69.46 45.1475 69.46C44.7541 70.3392 41.4098 71.3161 36.2951 71.3161H11.6066C1.77049 71.3161 0.688525 65.4546 0.688525 62.9145C0.688525 60.3745 3.2459 57.5414 4.32787 56.4668C4.72131 56.8575 5.11475 57.2483 5.60656 57.4437C3.93443 59.3976 3.34426 61.2537 4.03279 62.8168ZM8.45902 56.4668C6.29508 56.4668 4.52459 54.7083 4.52459 52.559C4.52459 50.4098 6.29508 48.6513 8.45902 48.6513C10.6229 48.6513 12.3934 50.4098 12.3934 52.559C12.3934 54.806 10.6229 56.4668 8.45902 56.4668ZM13.5738 55.0014C13.9672 54.2198 14.1639 53.4383 14.1639 52.559C14.1639 51.7775 14.0656 51.0936 13.7705 50.5075C15.2459 51.6798 16.8197 52.6567 18.4918 53.4383C17.0164 53.7313 15.1475 54.1221 13.5738 55.0014ZM30 54.7083C29.9016 54.7083 29.9016 54.7083 29.8033 54.7083C15.541 54.0244 4.42623 42.3989 4.42623 28.1357C4.42623 13.4817 16.4262 1.56309 31.082 1.56309C44.6557 1.56309 56.0656 11.6255 57.6393 25.0095V25.1072C57.7377 26.0841 57.8361 27.1588 57.8361 28.1357C57.8361 28.1357 57.8361 28.2334 57.8361 28.3311C58.2295 32.0434 59.2131 34.7788 60.1967 37.2212C61.1803 39.6635 61.9672 41.8128 61.9672 44.3528C61.8689 50.1167 57.3443 54.7083 51.6393 54.7083H30ZM83.2131 55.5875H82.2295V48.6513H83.2131V55.5875Z" fill="#6C7486"/>
</svg>
