<svg width="83" height="70" viewBox="0 0 83 70" fill="none" xmlns="http://www.w3.org/2000/svg">
<path d="M46.1587 20.4045C38.5642 20.4045 32.3505 26.4575 32.3505 33.9749C32.3505 41.4923 38.5642 47.5453 46.1587 47.5453C53.7532 47.5453 59.8682 41.4923 59.8682 33.9749C59.8682 26.5551 53.7532 20.4045 46.1587 20.4045ZM35.4081 41.2971C33.9286 39.2469 33.041 36.7085 33.041 34.0725C33.041 32.7057 33.2382 31.3389 33.7314 30.0697H41.3259V30.5579C41.2272 31.9247 40.1423 33.1939 38.6628 33.1939H35.4081V41.2971ZM53.0628 44.9093C51.0902 46.1785 48.7231 46.8619 46.1587 46.8619C42.2135 46.8619 38.5642 45.1046 36.1971 42.2734V33.8773H38.6628C40.4382 33.8773 41.9176 32.4128 42.1149 30.5579C42.1149 30.5579 42.1149 29.8745 42.1149 29.7768C42.1149 29.3863 41.819 29.0934 41.2272 29.0934H34.0273C35.9998 24.4073 40.7341 20.9902 46.1587 20.9902C48.7231 20.9902 50.9916 21.6736 53.0628 22.9428V44.9093ZM54.8381 43.5425V24.5049C57.5011 26.848 59.1778 30.265 59.1778 34.0725C59.1778 37.8801 57.5011 41.1994 54.8381 43.5425ZM82.4544 61.5063L67.0682 46.2762C66.7723 45.9833 66.2792 45.788 65.786 45.788C65.2929 45.788 64.8984 45.9833 64.5038 46.2762L64.3066 46.4714L61.2491 43.4449C61.1504 43.3473 61.1504 43.3473 61.0518 43.3473C62.7285 40.6137 63.8134 37.4895 63.8134 34.0725C63.8134 26.7504 59.2765 20.5021 52.8655 17.8661V13.5704C52.8655 13.0823 52.6683 12.6918 52.3724 12.3013L40.5368 0.585774C40.1423 0.195258 39.7478 0 39.2546 0H38.0711C38.0711 0 38.0711 0 37.9724 0H1.77533C0.789038 0 0 0.781032 0 1.75732V63.2636C0 64.2399 0.789038 65.0209 1.77533 65.0209H51.0902C52.0765 65.0209 52.8655 64.2399 52.8655 63.2636V50.1813C53.9505 49.6932 55.0354 49.205 56.1203 48.5216C56.1203 48.5216 56.1203 48.5216 56.2189 48.6193L59.2765 51.6458L59.0792 51.841C58.3888 52.5244 58.3888 53.5983 59.0792 54.2817L74.4654 69.5119C74.7613 69.8047 75.2545 70 75.7476 70C76.2408 70 76.6353 69.8047 77.0298 69.5119L82.6517 63.947C83.1449 63.3612 83.1448 62.1897 82.4544 61.5063ZM50.4984 12.887C49.7094 12.5941 48.6244 12.5941 47.6381 12.5941H41.1286V6.15063C41.1286 4.88145 40.8327 3.80753 40.4382 2.92887L50.4984 12.887ZM51.0902 63.2636H1.77533V1.75732H38.7615C39.5505 2.63598 40.3396 4.10042 40.3396 6.15063V12.9847C40.3396 13.1799 40.5368 13.3752 40.7341 13.3752H47.6381C49.7094 13.3752 50.7943 13.4728 51.0902 14.3515V17.1827C49.5121 16.6946 47.934 16.4993 46.1587 16.4993C38.0711 16.4993 31.2656 21.9665 29.1944 29.2887H28.2081V20.1116H29.3917C30.7725 20.1116 32.0547 18.94 32.1533 17.4756V17.378C32.1533 17.378 32.1533 17.378 32.1533 17.2803C32.1533 16.8898 31.7588 16.4993 31.3642 16.4993C31.2656 16.4993 31.0684 16.4993 30.9697 16.5969H21.5013C21.1068 16.5969 20.7122 16.9874 20.7122 17.378C20.7122 18.6471 21.8958 20.1116 23.4739 20.1116H24.6574V29.2887H23.4739C21.9944 29.2887 20.7122 30.5579 20.7122 32.0223C20.7122 32.1199 20.7122 32.1199 20.7122 32.2176L13.6109 32.1199C13.4136 32.1199 13.2164 32.2176 13.0191 32.3152C12.8219 32.5105 12.8219 32.7057 12.8219 32.901C12.8219 34.463 14.104 35.7322 15.5835 35.7322H16.7671V44.9093H15.5835C14.104 44.9093 12.8219 46.1785 12.8219 47.643C12.8219 48.0335 13.2164 48.424 13.6109 48.424H23.4739C23.8684 48.424 24.2629 48.0335 24.2629 47.643C24.2629 46.1785 22.9807 44.9093 21.5013 44.9093H20.3177V35.7322H21.5013C22.8821 35.7322 24.1643 34.5607 24.2629 33.0962V32.9986C24.2629 32.9986 24.2629 32.9986 24.2629 32.901V32.8033H28.6026C28.6026 33.1939 28.504 33.5844 28.504 33.9749C28.504 38.0753 29.9834 41.8828 32.3505 44.9093H31.2656C29.7862 44.9093 28.504 46.1785 28.504 47.643C28.504 48.0335 28.8985 48.424 29.293 48.424H36.1971C39.0574 50.3766 42.4108 51.4505 46.1587 51.4505C47.8354 51.4505 49.5121 51.1576 51.0902 50.7671V63.2636ZM21.5013 45.6904C22.5862 45.6904 23.4739 46.569 23.4739 47.643H13.6109C13.6109 46.569 14.4986 45.6904 15.5835 45.6904H17.5561V34.9512H15.5835C14.4986 34.9512 13.6109 33.9749 13.6109 32.901L23.4739 32.9986V32.901V32.9986C23.3752 34.0725 22.5862 34.9512 21.5013 34.9512H19.5287V45.6904H21.5013ZM21.5013 32.0223C21.5013 30.9484 22.3889 30.0697 23.4739 30.0697H25.4465V19.3305H23.4739C22.3889 19.3305 21.5013 18.159 21.5013 17.378H31.3642V17.2803V17.378C31.2656 18.4519 30.4766 19.3305 29.3917 19.3305H27.4191V30.0697H28.9971C28.7999 30.7531 28.7012 31.3389 28.7012 32.0223H21.5013ZM33.1396 45.6904C33.83 46.3738 34.5204 47.0572 35.2108 47.643H29.3917C29.3917 46.569 30.2793 45.6904 31.3642 45.6904H33.1396ZM56.1203 46.0809C56.0217 46.1785 55.923 46.3738 55.8244 46.4714C53.1614 48.5216 49.808 49.6932 46.2573 49.6932C37.4793 49.6932 30.378 42.6639 30.378 33.9749C30.378 25.2859 37.4793 18.2566 46.1587 18.2566C54.8381 18.2566 62.0381 25.3835 62.0381 33.9749C62.0381 37.3919 60.8545 40.6137 58.9806 43.152C58.8819 43.2497 58.7833 43.2497 58.6847 43.3473L56.1203 46.0809ZM57.5011 47.4477C58.4874 46.6667 59.3751 45.788 60.0655 44.8117L63.8134 48.5216L61.1504 51.06L57.5011 47.4477ZM77.9175 66.0948L62.5312 50.7671L62.1367 51.1576L77.5229 66.3877L75.649 68.3403L60.2628 53.0126L64.4052 48.9121L65.8847 47.4477L81.2709 62.6778L77.9175 66.0948Z" fill="#6C7486"/>
</svg>
