<svg width="73" height="69" viewBox="0 0 73 69" fill="none" xmlns="http://www.w3.org/2000/svg">
<path d="M23.3146 9.46676L21.3528 11.4187L21.9414 12.0042L23.9032 10.0523L23.3146 9.46676ZM17.4293 3.51344L16.8407 2.92786L14.8789 4.87977L15.4675 5.46535L17.4293 3.51344ZM18.7044 4.78218L14.7809 8.686L16.056 9.95474L19.9796 6.05092L18.7044 4.78218ZM25.865 15.8105L27.8267 13.8586L27.2382 13.273L25.2764 15.2249L25.865 15.8105ZM21.3528 7.51485L19.3911 9.46676L19.9796 10.0523L21.9414 8.10042L21.3528 7.51485ZM32.3389 22.2518L34.3006 20.2999L33.7121 19.7143L31.7503 21.6662L32.3389 22.2518ZM25.2764 11.4187L23.3146 13.3706L23.9032 13.9562L25.865 12.0042L25.2764 11.4187ZM30.3771 16.396L29.1019 15.1273L25.1783 19.0311L26.4535 20.2999L30.3771 16.396ZM30.3771 20.2999L32.3389 18.3479L31.7503 17.7624L29.7885 19.7143L30.3771 20.2999ZM57.6459 51.3352L61.5695 47.4314L60.2943 46.1627L56.3708 50.0665L57.6459 51.3352ZM55.0956 44.8939L57.0574 42.942L56.4689 42.3564L54.5071 44.3083L55.0956 44.8939ZM61.5695 51.4328L63.5313 49.4809L62.9428 48.8953L60.981 50.8472L61.5695 51.4328ZM53.1338 43.0396L55.0956 41.0877L54.5071 40.5021L52.5453 42.454L53.1338 43.0396ZM57.0574 46.8458L59.0192 44.8939L58.4306 44.3083L56.4689 46.2603L57.0574 46.8458ZM51.172 41.0877L53.1338 39.1358L52.5453 38.5502L50.5835 40.5021L51.172 41.0877ZM72.4574 55.6294L47.9351 31.2306L64.316 14.9321C64.6103 14.6393 64.8064 14.1513 64.8064 13.6634C64.8064 13.3706 64.7084 13.1754 64.6103 12.8826L67.651 9.85714C68.3377 9.17397 68.3377 8.10042 67.651 7.41726L60.7848 0.585573C60.4905 0.195191 60.0001 0 59.5096 0C59.0192 0 58.6268 0.195191 58.2345 0.487977L55.0956 3.61103C54.8994 3.51344 54.7032 3.51344 54.5071 3.51344C54.0166 3.51344 53.6243 3.70863 53.2319 4.00141L37.0471 20.3975L17.0369 0.487977C16.7426 0.195191 16.2522 0 15.7617 0C15.2713 0 14.8789 0.195191 14.4866 0.487977L4.18719 10.8331C3.50057 11.5163 3.50057 12.5898 4.18719 13.273L24.1974 33.1825L5.46235 51.9208C5.26618 52.116 5.16809 52.3112 5.07 52.5064L0.165526 65.6818C-0.128742 66.3649 -0.0306529 67.0481 0.459794 67.5361C0.754062 67.8289 1.24451 68.024 1.73496 68.024C1.93114 68.024 2.12731 68.024 2.32349 67.9265L15.7617 63.1443C16.056 63.0467 16.2522 62.9491 16.4484 62.7539L35.1834 44.1132L59.7058 68.512C60.0001 68.8048 60.4905 69 60.981 69C61.4714 69 61.8638 68.8048 62.2561 68.512L72.6536 58.1669C73.1441 57.4837 73.1441 56.3126 72.4574 55.6294ZM59.5096 1.75672L66.474 8.686L62.9428 12.1994L55.9784 5.27016L59.5096 1.75672ZM5.36426 12.1018L15.7617 1.75672L35.772 21.6662L25.3745 32.0113L5.36426 12.1018ZM51.172 8.78359L52.5453 10.1499L9.77829 52.7992C9.6802 52.8967 8.79739 53.3847 7.42414 52.3112L51.172 8.78359ZM1.73496 66.3649L3.30439 62.2659L5.9528 64.901L1.73496 66.3649ZM15.1732 61.5827L7.03179 64.5106L3.69674 61.1924L6.73752 53.1895L6.83561 53.0919C7.62032 53.7751 8.40504 53.9703 8.99357 54.0679L9.48402 54.5559C9.58211 55.3366 9.87638 56.215 11.0535 57.3861C12.1324 58.4597 13.1133 58.8501 13.898 58.9477L14.2904 59.3381C14.1923 59.826 14.3885 60.6068 15.1732 61.5827ZM35.0854 41.6733L33.8102 42.8444L15.8598 60.802C14.5847 59.2405 15.3694 58.3621 15.3694 58.2645C15.3694 58.2645 15.3694 58.2645 15.3694 58.1669L58.0383 15.6153L57.3517 14.9321L14.5847 57.6789C14.2904 57.8741 13.2114 58.2645 11.5439 56.6054C9.58211 54.6535 10.4649 53.5799 10.4649 53.4823L53.2319 10.8331L59.5096 17.0792L60.1963 16.396L51.8587 8.10042L54.6052 5.36775L62.2561 12.9802L63.0408 13.761L46.758 30.0594L45.4828 31.2306L35.0854 41.6733ZM60.7848 67.2433L36.2624 42.8444L46.6599 32.4993L49.7988 35.6223L46.0714 39.331L47.3465 40.5997L51.0739 36.8911L71.1823 56.8982L60.7848 67.2433ZM48.5236 34.3536L47.9351 33.768L45.9733 35.7199L46.5618 36.3055L48.5236 34.3536ZM67.553 57.1909L69.5147 55.239L68.9262 54.6535L66.9644 56.6054L67.553 57.1909ZM63.6294 53.2871L65.5912 51.3352L65.0026 50.7496L63.0408 52.7016L63.6294 53.2871ZM65.5912 55.239L67.553 53.2871L66.9644 52.7016L65.0026 54.6535L65.5912 55.239ZM53.8204 7.41726C53.4281 7.80764 53.4281 8.29562 53.8204 8.686C54.2128 9.07638 54.7032 9.07638 55.0956 8.686C55.488 8.29562 55.488 7.80764 55.0956 7.41726C54.8013 7.12447 54.2128 7.12447 53.8204 7.41726ZM56.7631 10.3451C56.3708 10.7355 56.3708 11.2235 56.7631 11.6139C57.1555 12.0042 57.6459 12.0042 58.0383 11.6139C58.4306 11.2235 58.4306 10.7355 58.0383 10.3451C57.6459 9.95474 57.0574 9.95474 56.7631 10.3451ZM60.7848 13.0778C60.3924 12.6874 59.902 12.6874 59.5096 13.0778C59.1173 13.4682 59.1173 13.9562 59.5096 14.3465C59.902 14.7369 60.3924 14.7369 60.7848 14.3465C61.0791 13.9562 61.0791 13.4682 60.7848 13.0778Z" fill="#6C7486"/>
</svg>
