<svg width="216" height="73" fill="none" xmlns="http://www.w3.org/2000/svg"><path d="M58.5 30v14h-3.22V32.64h-6.32V44h-3.22V30H58.5zm10.15 14.24c-1.453 0-2.766-.313-3.94-.94a7.09 7.09 0 0 1-2.74-2.58c-.653-1.107-.98-2.347-.98-3.72 0-1.373.327-2.607.98-3.7a7.043 7.043 0 0 1 2.74-2.6c1.174-.627 2.487-.94 3.94-.94 1.454 0 2.76.313 3.92.94a7.044 7.044 0 0 1 2.74 2.6c.667 1.093 1 2.327 1 3.7 0 1.373-.333 2.613-1 3.72a7.092 7.092 0 0 1-2.74 2.58c-1.16.627-2.466.94-3.92.94zm0-2.76c.827 0 1.574-.187 2.24-.56a4.092 4.092 0 0 0 1.56-1.6c.387-.68.58-1.453.58-2.32 0-.867-.193-1.64-.58-2.32a3.954 3.954 0 0 0-1.56-1.58c-.666-.387-1.413-.58-2.24-.58-.826 0-1.573.193-2.24.58-.666.373-1.193.9-1.58 1.58-.373.68-.56 1.453-.56 2.32 0 .867.187 1.64.56 2.32.387.68.914 1.213 1.58 1.6.667.373 1.414.56 2.24.56zM90.896 30v14h-3.2V32.64h-4.8l-.1 2.92c-.067 1.987-.227 3.6-.48 4.84-.254 1.227-.68 2.173-1.28 2.84-.587.653-1.414.98-2.48.98-.44 0-.974-.073-1.6-.22l.2-2.74c.173.053.366.08.58.08.773 0 1.313-.453 1.62-1.36.306-.92.5-2.353.58-4.3l.2-5.68h10.76zm3.496 0h3.22v9.12l6.68-9.12h3.04v14h-3.2v-9.1l-6.68 9.1h-3.06V30zm21.846 8.36h-2.24V44h-3.22V30h3.22v5.66h2.32l3.68-5.66h3.42l-4.58 6.76 4.72 7.24h-3.68l-3.64-5.64zm15.399 5.88c-1.426 0-2.72-.307-3.88-.92a7.137 7.137 0 0 1-2.72-2.58c-.653-1.107-.98-2.353-.98-3.74s.327-2.627.98-3.72a6.942 6.942 0 0 1 2.72-2.58c1.16-.627 2.46-.94 3.9-.94 1.214 0 2.307.213 3.28.64a6.565 6.565 0 0 1 2.48 1.84l-2.08 1.92c-.946-1.093-2.12-1.64-3.52-1.64-.866 0-1.64.193-2.32.58-.68.373-1.213.9-1.6 1.58-.373.68-.56 1.453-.56 2.32 0 .867.187 1.64.56 2.32.387.68.92 1.213 1.6 1.6.68.373 1.454.56 2.32.56 1.4 0 2.574-.553 3.52-1.66l2.08 1.92a6.477 6.477 0 0 1-2.48 1.86c-.986.427-2.086.64-3.3.64zm23.416-11.6h-6.66l.02 11.36h-3.22V30h9.88l-.02 2.64zm8.056-2.64c1.24 0 2.313.207 3.22.62.92.413 1.626 1 2.12 1.76.493.76.74 1.66.74 2.7 0 1.027-.247 1.927-.74 2.7-.494.76-1.2 1.347-2.12 1.76-.907.4-1.98.6-3.22.6h-2.82V44h-3.24V30h6.06zm-.18 7.5c.973 0 1.713-.207 2.22-.62.506-.427.76-1.027.76-1.8 0-.787-.254-1.387-.76-1.8-.507-.427-1.247-.64-2.22-.64h-2.64v4.86h2.64zm20.724-7.5l-5.96 11.08c-.573 1.067-1.266 1.873-2.08 2.42-.8.547-1.673.82-2.62.82-.733 0-1.493-.16-2.28-.48l.78-2.46c.56.173 1.027.26 1.4.26.4 0 .76-.093 1.08-.28.32-.2.614-.507.88-.92l.12-.16-5.52-10.28h3.46l3.72 7.52 3.84-7.52h3.18zm14.3 0v14h-3.22V32.64h-6.32V44h-3.22V30h12.76zm16.231 0v14h-3.22V32.64h-6.32V44h-3.22V30h12.76z" fill="#00A7FF"/><path fill-rule="evenodd" clip-rule="evenodd" d="M12.86 33.825c2.765-3.176 3.733-6.136 8.71-7.147 6.497-1.3 6.567.072 10.507 1.95-.899-11.696-19.217-5.92-19.217 5.197zm-7.742 9.458c9.125 8.447 19.424-2.743 16.452-9.24-1.244 14.655-23.157 3.031-16.452 9.24z" fill="#00A7FF"/><path fill-rule="evenodd" clip-rule="evenodd" d="M1.178 27.472l-.76 1.805C-1.725 37.22 4.704 41.19 12.1 40.323c3.041-.36 5.046-1.733 7.189-2.96-1.59-.866-6.29 3.105-12.304-2.455-5.392-5.053-.83-17.399-5.807-7.436zm14.724 3.61c1.175.578 3.041-.65 5.322-.505 2.627.144 5.184 1.66 6.913 3.393 2.004 2.094 3.525 5.776 2.972 8.952l-.484 2.672c9.055-2.383 4.01-26.136-14.723-14.512z" fill="#00A7FF"/><path fill-rule="evenodd" clip-rule="evenodd" d="M7.883 33.32c1.245 1.66 3.802 3.754 6.152 3.971l-1.52-1.372C5.325 29.783 19.22 16.571 26.2 21.263c.553-9.169-29.516-2.815-18.318 12.057zm18.802 2.383c-1.244-1.66-3.802-3.755-6.152-3.971l1.52 1.372c7.19 6.136-6.704 19.348-13.686 14.583-.553 9.241 29.516 2.888 18.318-11.984z" fill="#00A7FF"/></svg>