<svg width="22" height="22" viewBox="0 0 22 22" fill="none" xmlns="http://www.w3.org/2000/svg">
<path fill-rule="evenodd" clip-rule="evenodd" d="M2.51852 0C1.12758 0 0 1.12758 0 2.51852V14.4815C0 15.8724 1.12758 17 2.51852 17H14.4815C15.8724 17 17 15.8724 17 14.4815V2.51852C17 1.12758 15.8724 0 14.4815 0H2.51852Z" fill="white"/>
<path fill-rule="evenodd" clip-rule="evenodd" d="M6 19.037V19.6296C6 20.9388 7.06125 22 8.37037 22H19.6296C20.9387 22 22 20.9388 22 19.6296V8.37037C22 7.06123 20.9387 6 19.6296 6H19.037V16.6667C19.037 17.9758 17.9758 19.037 16.6667 19.037H6Z" fill="white"/>
</svg>
