<svg width="28" height="28" viewBox="0 0 28 28" fill="none" xmlns="http://www.w3.org/2000/svg">
<path d="M17.5358 2.10738L16.5964 4.88406L15.7616 7.35235C15.601 7.82857 15.8347 8.34812 16.2977 8.54387L18.3108 9.39337C18.7469 9.57487 18.985 10.0478 18.8709 10.5062C18.6174 11.5166 18.4355 12.6798 16.753 15.5896C15.0706 18.4994 14.1579 19.2407 13.4097 19.9654C13.0697 20.2934 12.5411 20.3237 12.1659 20.0367L10.4237 18.718C10.0227 18.415 9.45591 18.4724 9.12376 18.8496L7.45654 20.7465L5.46854 23.0086C5.13016 23.3936 5.15378 23.9765 5.52218 24.3329L7.13718 25.8946C7.56823 26.3181 8.14575 26.5596 8.75001 26.569C10.7417 26.5808 14.8621 25.5867 19.6638 17.2698C24.4656 8.95294 23.2661 4.88803 22.26 3.16904C21.9497 2.65044 21.4518 2.27103 20.8695 2.1095L18.7095 1.49173C18.2167 1.35084 17.7001 1.62182 17.5358 2.10738Z" fill="#6C7486"/>
</svg>
