<svg width="47" height="34" viewBox="0 0 47 34" fill="none" xmlns="http://www.w3.org/2000/svg">
<path d="M46.1 5.9C45.6 5.3 44.8 5 44 5C43.2 5 42.4 5.3 41.9 5.9L37.9 9.9V8C37.9 5.8 36.1 4 33.9 4H2.1C2.2 2.4 2.9 2 5 2H32C32.6 2 33 1.6 33 1C33 0.4 32.6 0 32 0H5C1.4 0 0 1.4 0 5V7C0 7.1 0 7.2 0.1 7.3C0 7.5 0 7.8 0 8V30C0 32.2 1.8 34 4 34H33.9C36.1 34 37.9 32.2 37.9 30V18.4L46.2 10.1C46.7 9.6 47 8.8 47 8C47 7.2 46.7 6.4 46.1 5.9ZM44.7 8.7L27 26.4L17.3 16.7C16.9 16.3 16.9 15.7 17.3 15.3C17.7 14.9 18.3 14.9 18.7 15.3L27 23.6L43.3 7.3C43.7 6.9 44.3 6.9 44.7 7.3C45.1 7.7 45.1 8.3 44.7 8.7Z" fill="#00A7FF"/>
</svg>
