<svg width="40" height="40" viewBox="0 0 40 40" fill="none" xmlns="http://www.w3.org/2000/svg">
<path d="M19.9909 6.56853e-05C23.9891 -0.0103537 27.9144 1.21913 31.2254 3.45929L33.5889 1.0941C33.5993 1.08368 33.5993 1.08368 33.6097 1.07326C34.224 0.479356 35.0153 0.0938399 35.8795 0.010485C35.942 6.56855e-05 35.994 6.56853e-05 36.0565 6.56853e-05H36.4209C36.4834 6.56853e-05 36.5458 0.010485 36.6083 0.010485C37.4621 0.0938399 38.1909 0.448098 38.8052 1.00032C38.8365 1.03158 38.8677 1.05242 38.8989 1.08368C40.367 2.55281 40.367 4.92842 38.8989 6.38714L36.5354 8.75233C38.8261 12.0553 39.9401 15.9938 39.9922 19.9948C39.9922 31.0393 31.0379 40 20.0013 40C8.96467 40 0 31.0498 0 20.0052C0 8.96072 8.95425 6.56853e-05 19.9909 6.56853e-05ZM19.9909 33.1336C19.3037 33.1336 18.7415 33.6963 18.7415 34.384V36.2594C18.7415 36.9471 19.3037 37.5098 19.9909 37.5098C20.6781 37.5098 21.2403 36.9471 21.2403 36.2594V34.384C21.2403 33.6963 20.6781 33.1336 19.9909 33.1336ZM5.62244 18.7549H3.74829C3.06111 18.7549 2.49886 19.3176 2.49886 20.0052C2.49886 20.6929 3.06111 21.2556 3.74829 21.2556H5.62244C6.30962 21.2556 6.87187 20.6929 6.87187 20.0052C6.87187 19.3176 6.30962 18.7549 5.62244 18.7549ZM36.2335 18.7549H34.3593C33.6722 18.7549 33.1099 19.3176 33.1099 20.0052C33.1099 20.6929 33.6722 21.2556 34.3593 21.2556H36.2335C36.9207 21.2556 37.4829 20.6929 37.4829 20.0052C37.4829 19.3176 36.9207 18.7549 36.2335 18.7549ZM36.1085 2.50071C35.817 2.53197 35.5567 2.657 35.3485 2.86539L19.9909 18.2339L12.1299 10.3673C11.6405 9.87762 10.8492 9.87762 10.3599 10.3673C9.8705 10.857 9.8705 11.6489 10.3599 12.1386L19.1059 20.8909C19.5952 21.3806 20.3865 21.3806 20.8759 20.8909L37.1185 4.63668C37.6079 4.14697 37.6079 3.3551 37.1185 2.86539C36.8998 2.66742 36.65 2.53197 36.3584 2.50071H36.1085ZM19.9909 2.50071C19.3037 2.50071 18.7415 3.06336 18.7415 3.75104V5.62652C18.7415 6.3142 19.3037 6.87685 19.9909 6.87685C20.6781 6.87685 21.2403 6.3142 21.2403 5.62652V3.75104C21.2403 3.06336 20.6781 2.50071 19.9909 2.50071Z" fill="#00A7FF"/>
</svg>
