<svg width="216" height="73" viewBox="0 0 216 73" fill="none" xmlns="http://www.w3.org/2000/svg">
<path d="M58.5 30V44H55.28V32.64H48.96V44H45.74V30H58.5ZM68.6505 44.24C67.1971 44.24 65.8838 43.9267 64.7105 43.3C63.5505 42.6733 62.6371 41.8133 61.9705 40.72C61.3171 39.6133 60.9905 38.3733 60.9905 37C60.9905 35.6267 61.3171 34.3933 61.9705 33.3C62.6371 32.1933 63.5505 31.3267 64.7105 30.7C65.8838 30.0733 67.1971 29.76 68.6505 29.76C70.1038 29.76 71.4105 30.0733 72.5705 30.7C73.7305 31.3267 74.6438 32.1933 75.3105 33.3C75.9771 34.3933 76.3105 35.6267 76.3105 37C76.3105 38.3733 75.9771 39.6133 75.3105 40.72C74.6438 41.8133 73.7305 42.6733 72.5705 43.3C71.4105 43.9267 70.1038 44.24 68.6505 44.24ZM68.6505 41.48C69.4771 41.48 70.2238 41.2933 70.8905 40.92C71.5571 40.5333 72.0771 40 72.4505 39.32C72.8371 38.64 73.0305 37.8667 73.0305 37C73.0305 36.1333 72.8371 35.36 72.4505 34.68C72.0771 34 71.5571 33.4733 70.8905 33.1C70.2238 32.7133 69.4771 32.52 68.6505 32.52C67.8238 32.52 67.0771 32.7133 66.4105 33.1C65.7438 33.4733 65.2171 34 64.8305 34.68C64.4571 35.36 64.2705 36.1333 64.2705 37C64.2705 37.8667 64.4571 38.64 64.8305 39.32C65.2171 40 65.7438 40.5333 66.4105 40.92C67.0771 41.2933 67.8238 41.48 68.6505 41.48ZM90.8958 30V44H87.6958V32.64H82.8958L82.7958 35.56C82.7291 37.5467 82.5691 39.16 82.3158 40.4C82.0624 41.6267 81.6358 42.5733 81.0358 43.24C80.4491 43.8933 79.6224 44.22 78.5558 44.22C78.1158 44.22 77.5824 44.1467 76.9558 44L77.1558 41.26C77.3291 41.3133 77.5224 41.34 77.7358 41.34C78.5091 41.34 79.0491 40.8867 79.3558 39.98C79.6624 39.06 79.8558 37.6267 79.9358 35.68L80.1358 30H90.8958ZM94.3923 30H97.6123V39.12L104.292 30H107.332V44H104.132V34.9L97.4523 44H94.3923V30ZM116.238 38.36H113.998V44H110.778V30H113.998V35.66H116.318L119.998 30H123.418L118.838 36.76L123.558 44H119.878L116.238 38.36ZM131.637 44.24C130.211 44.24 128.917 43.9333 127.757 43.32C126.611 42.6933 125.704 41.8333 125.037 40.74C124.384 39.6333 124.057 38.3867 124.057 37C124.057 35.6133 124.384 34.3733 125.037 33.28C125.704 32.1733 126.611 31.3133 127.757 30.7C128.917 30.0733 130.217 29.76 131.657 29.76C132.871 29.76 133.964 29.9733 134.937 30.4C135.924 30.8267 136.751 31.44 137.417 32.24L135.337 34.16C134.391 33.0667 133.217 32.52 131.817 32.52C130.951 32.52 130.177 32.7133 129.497 33.1C128.817 33.4733 128.284 34 127.897 34.68C127.524 35.36 127.337 36.1333 127.337 37C127.337 37.8667 127.524 38.64 127.897 39.32C128.284 40 128.817 40.5333 129.497 40.92C130.177 41.2933 130.951 41.48 131.817 41.48C133.217 41.48 134.391 40.9267 135.337 39.82L137.417 41.74C136.751 42.5533 135.924 43.1733 134.937 43.6C133.951 44.0267 132.851 44.24 131.637 44.24ZM155.053 32.64H148.393L148.413 44H145.193V30H155.073L155.053 32.64ZM163.109 30C164.349 30 165.422 30.2067 166.329 30.62C167.249 31.0333 167.955 31.62 168.449 32.38C168.942 33.14 169.189 34.04 169.189 35.08C169.189 36.1067 168.942 37.0067 168.449 37.78C167.955 38.54 167.249 39.1267 166.329 39.54C165.422 39.94 164.349 40.14 163.109 40.14H160.289V44H157.049V30H163.109ZM162.929 37.5C163.902 37.5 164.642 37.2933 165.149 36.88C165.655 36.4533 165.909 35.8533 165.909 35.08C165.909 34.2933 165.655 33.6933 165.149 33.28C164.642 32.8533 163.902 32.64 162.929 32.64H160.289V37.5H162.929ZM183.653 30L177.693 41.08C177.12 42.1467 176.427 42.9533 175.613 43.5C174.813 44.0467 173.94 44.32 172.993 44.32C172.26 44.32 171.5 44.16 170.713 43.84L171.493 41.38C172.053 41.5533 172.52 41.64 172.893 41.64C173.293 41.64 173.653 41.5467 173.973 41.36C174.293 41.16 174.587 40.8533 174.853 40.44L174.973 40.28L169.453 30H172.913L176.633 37.52L180.473 30H183.653ZM197.953 30V44H194.733V32.64H188.413V44H185.193V30H197.953ZM214.184 30V44H210.964V32.64H204.644V44H201.424V30H214.184Z" fill="#00A7FF"/>
<path fill-rule="evenodd" clip-rule="evenodd" d="M12.8603 33.8255C15.6252 30.6489 16.5929 27.6888 21.5698 26.6781C28.0675 25.3786 28.1366 26.7503 32.0766 28.6274C31.178 16.9316 12.8603 22.7073 12.8603 33.8255Z" fill="#00A7FF"/>
<path fill-rule="evenodd" clip-rule="evenodd" d="M5.11843 43.2833C14.2427 51.7303 24.5422 40.5398 21.5698 34.0421C20.3256 48.698 -1.58656 37.0744 5.11843 43.2833Z" fill="#00A7FF"/>
<path fill-rule="evenodd" clip-rule="evenodd" d="M1.17838 27.4723L0.418024 29.2772C-1.72481 37.2188 4.70369 41.1896 12.0999 40.3232C15.1414 39.9622 17.1459 38.5905 19.2888 37.3632C17.6989 36.4968 12.9985 40.4676 6.98477 34.9085C1.59313 29.8547 6.15528 17.5092 1.17838 27.4723Z" fill="#00A7FF"/>
<path fill-rule="evenodd" clip-rule="evenodd" d="M15.9017 31.0821C17.0768 31.6596 18.9431 30.4323 21.2242 30.5767C23.8509 30.7211 26.4085 32.2372 28.1366 33.9699C30.1412 36.0636 31.6619 39.7457 31.1089 42.9223L30.625 45.5936C39.6802 43.2111 34.6342 19.4585 15.9017 31.0821Z" fill="#00A7FF"/>
<path fill-rule="evenodd" clip-rule="evenodd" d="M7.88337 33.3202C9.1276 34.9807 11.6852 37.0744 14.0354 37.291L12.5147 35.9192C5.3258 29.7825 19.2196 16.5706 26.2011 21.2634C26.7541 12.0944 -3.31465 18.4477 7.88337 33.3202Z" fill="#00A7FF"/>
<path fill-rule="evenodd" clip-rule="evenodd" d="M26.685 35.7027C25.4408 34.0421 22.8832 31.9484 20.533 31.7318L22.0537 33.1036C29.2426 39.2403 15.3487 52.4522 8.36724 47.6873C7.81425 56.9284 37.883 50.5751 26.685 35.7027Z" fill="#00A7FF"/>
</svg>
