<svg width="46" height="42" viewBox="0 0 46 42" fill="none" xmlns="http://www.w3.org/2000/svg">
<path d="M45.1 5.9C44.6 5.3 43.8 5 43 5C42.2 5 41.4 5.3 40.9 5.9L36 10.8V2C36 1 35 0 34 0H2C1 0 0 1 0 2C0 3 0 14.7 0 14.7C0 31.7 16.3 42 18 42C19.5 42 32.8 33.9 35.5 19.7L45.1 10.1C45.7 9.6 46 8.8 46 8C46 7.2 45.7 6.4 45.1 5.9ZM18.5 35.2C18.3 35.4 17.9 35.6 17.6 35.6C17.4 35.6 17.3 35.5 17.1 35.4C15.1 34 5 26.5 5 14.6V5.8C5 5.3 5.4 4.9 6 4.9H29.5C30 4.9 30.4 5.5 30.4 6C30.4 6.5 30 7.1 29.5 7.1H7V14.6C7 25.1 16.4 32.6 18.3 33.9C18.7 34.2 18.8 34.8 18.5 35.2ZM43.7 8.7L26 26.4L16.3 16.7C15.9 16.3 15.9 15.7 16.3 15.3C16.7 14.9 17.3 14.9 17.7 15.3L26 23.6L42.3 7.3C42.7 6.9 43.3 6.9 43.7 7.3C44.1 7.7 44.1 8.3 43.7 8.7Z" fill="#00A7FF"/>
</svg>
